<svg width="20" height="14" viewBox="0 0 20 14" fill="none" xmlns="http://www.w3.org/2000/svg">
<path fill-rule="evenodd" clip-rule="evenodd" d="M0.25 1C0.25 0.585786 0.585786 0.25 1 0.25H19C19.4142 0.25 19.75 0.585786 19.75 1C19.75 1.41421 19.4142 1.75 19 1.75H1C0.585786 1.75 0.25 1.41421 0.25 1ZM0.25 13C0.25 12.5858 0.585786 12.25 1 12.25L19 12.25C19.4142 12.25 19.75 12.5858 19.75 13C19.75 13.4142 19.4142 13.75 19 13.75L1 13.75C0.585786 13.75 0.25 13.4142 0.25 13ZM1 6.25C0.585786 6.25 0.25 6.58579 0.25 7C0.25 7.41421 0.585786 7.75 1 7.75L19 7.75C19.4142 7.75 19.75 7.41422 19.75 7C19.75 6.58579 19.4142 6.25 19 6.25L1 6.25Z" fill="#000B26" fill-opacity="0.72"/>
</svg>
