<svg width="18" height="20" viewBox="0 0 18 20" fill="none" xmlns="http://www.w3.org/2000/svg">
<path fill-rule="evenodd" clip-rule="evenodd" d="M3.75 0.25C1.67893 0.25 0 1.92893 0 4V16C0 18.0711 1.67893 19.75 3.75 19.75H9.75C11.8211 19.75 13.5 18.0711 13.5 16V15C13.5 14.5858 13.1642 14.25 12.75 14.25C12.3358 14.25 12 14.5858 12 15V16C12 17.2426 10.9926 18.25 9.75 18.25H3.75C2.50736 18.25 1.5 17.2426 1.5 16V4C1.5 2.75736 2.50736 1.75 3.75 1.75H9.75C10.9926 1.75 12 2.75736 12 4V5C12 5.41421 12.3358 5.75 12.75 5.75C13.1642 5.75 13.5 5.41421 13.5 5V4C13.5 1.92893 11.8211 0.25 9.75 0.25H3.75ZM8.78033 7.53033C9.07322 7.23744 9.07322 6.76256 8.78033 6.46967C8.48744 6.17678 8.01256 6.17678 7.71967 6.46967L4.71967 9.46967C4.42678 9.76256 4.42678 10.2374 4.71967 10.5303L7.71967 13.5303C8.01256 13.8232 8.48744 13.8232 8.78033 13.5303C9.07322 13.2374 9.07322 12.7626 8.78033 12.4697L7.06066 10.75H17.25C17.6642 10.75 18 10.4142 18 10C18 9.58579 17.6642 9.25 17.25 9.25H7.06066L8.78033 7.53033Z" fill="#000B26" fill-opacity="0.72"/>
</svg>
