<svg width="94" height="18" viewBox="0 0 94 18" fill="none" xmlns="http://www.w3.org/2000/svg">
<path d="M10.9672 16.7217V13.8232H3.29944V10.3217H10.8045V7.42319H3.29944V4.15362H10.9672V1.25507H0V16.7217H10.9672Z" fill="#000B26" fill-opacity="0.72"/>
<path d="M21.0515 17C24.4672 17 26.4189 15.1217 27.5342 13.1971L24.6995 11.829C24.0489 13.1043 22.6548 14.0783 21.0515 14.0783C18.24 14.0783 16.1953 11.9217 16.1953 9C16.1953 6.07826 18.24 3.92174 21.0515 3.92174C22.6548 3.92174 24.0489 4.91884 24.6995 6.17101L27.5342 4.77971C26.4422 2.85507 24.4672 1 21.0515 1C16.4044 1 12.8029 4.24638 12.8029 9C12.8029 13.7536 16.4044 17 21.0515 17Z" fill="#000B26" fill-opacity="0.72"/>
<g clip-path="url(#clip0_2231_1140)">
<path d="M32.5421 13.1004C32.5421 13.1004 33.8039 16.8843 38.5342 18.0001V16.5937C43.3575 16.5937 47.2675 13.5561 47.2675 8.73321C47.2675 3.91037 43.3575 0 38.5342 0C33.7116 0 29.801 3.91037 29.801 8.73321C29.801 9.16482 29.8334 9.58853 29.8934 10.0032C30.4693 6.30502 33.6744 3.41975 38.3158 2.50143C38.3532 2.0152 38.3907 1.52759 38.4337 0.97294C42.2236 1.65606 44.3561 5.66996 44.3561 5.66996C44.3561 5.66996 42.5124 9.00009 38.5907 10.2123L38.5976 8.27855C34.0518 9.73452 32.5421 13.1004 32.5421 13.1004Z" fill="url(#paint0_linear_2231_1140)"/>
</g>
<path d="M62.0813 16.7101L58.596 10.8203C60.269 10.4261 61.9884 8.96522 61.9884 6.22899C61.9884 3.35363 60.0134 1.24348 56.7837 1.24348H49.5342V16.7101H52.8336V11.2145H55.2501L58.294 16.7101H62.0813ZM56.2957 8.31594H52.8336V4.14203H56.2957C57.6201 4.14203 58.6193 4.93044 58.6193 6.22899C58.6193 7.52754 57.6201 8.31594 56.2957 8.31594Z" fill="#000B26" fill-opacity="0.72"/>
<path d="M71.4587 16.9884C76.1755 16.9884 78.4526 14.3681 78.4526 10.5188V1.24348H75.0834V10.4261C75.0834 12.5826 73.8519 14.0667 71.4587 14.0667C69.0654 14.0667 67.8107 12.5826 67.8107 10.4261V1.24348H64.4648V10.542C64.4648 14.3449 66.7419 16.9884 71.4587 16.9884Z" fill="#000B26" fill-opacity="0.72"/>
<path d="M87.0125 16.9884C91.1949 16.9884 93.2164 14.8551 93.2164 12.0261C93.2164 6.25218 84.3172 7.89855 84.3172 5.44058C84.3172 4.51305 85.1072 3.88696 86.5245 3.88696C88.1046 3.88696 89.7775 4.42029 91.0322 5.57971L92.8678 3.16812C91.3343 1.75363 89.2896 1.0116 86.8266 1.0116C83.1786 1.0116 80.948 3.14493 80.948 5.71884C80.948 11.5391 89.8705 9.66087 89.8705 12.3971C89.8705 13.2783 88.9875 14.113 87.1751 14.113C85.0375 14.113 83.3413 13.1623 82.2492 12.0261L80.4601 14.5304C81.9007 15.9913 84.0383 16.9884 87.0125 16.9884Z" fill="#000B26" fill-opacity="0.72"/>
<defs>
<linearGradient id="paint0_linear_2231_1140" x1="29.5342" y1="-2.8125" x2="43.0343" y2="20.5" gradientUnits="userSpaceOnUse">
<stop stop-color="#00D5C7"/>
<stop offset="1" stop-color="#FFEE57"/>
</linearGradient>
<clipPath id="clip0_2231_1140">
<rect width="18" height="18" fill="white" transform="translate(29.5342)"/>
</clipPath>
</defs>
</svg>
