<svg width="20" height="16" viewBox="0 0 20 16" fill="none" xmlns="http://www.w3.org/2000/svg">
<path fill-rule="evenodd" clip-rule="evenodd" d="M3 1.5H17C17.6497 1.5 18.203 1.91311 18.4114 2.49099L11.2481 7.26656C10.4923 7.77041 9.5077 7.77041 8.75192 7.26656L1.58857 2.49099C1.79701 1.91311 2.35026 1.5 3 1.5ZM1.5 4.23472V13C1.5 13.8284 2.17157 14.5 3 14.5H17C17.8284 14.5 18.5 13.8284 18.5 13V4.23472L12.0801 8.51464C10.8205 9.35439 9.1795 9.35439 7.91987 8.51464L1.5 4.23472ZM0 3C0 1.34315 1.34315 0 3 0H17C18.6569 0 20 1.34315 20 3V13C20 14.6569 18.6569 16 17 16H3C1.34315 16 0 14.6569 0 13V3Z" fill="#000B26" fill-opacity="0.32"/>
</svg>
