<svg width="48" height="48" viewBox="0 0 48 48" fill="none" xmlns="http://www.w3.org/2000/svg">
<path d="M0 8C0 3.58172 3.58172 0 8 0H40C44.4183 0 48 3.58172 48 8V40C48 44.4183 44.4183 48 40 48H8C3.58172 48 0 44.4183 0 40V8Z" fill="none" fill-opacity="0.08"/>
<path fill-rule="evenodd" clip-rule="evenodd" d="M23.4697 17.4697C23.7626 17.1768 24.2374 17.1768 24.5303 17.4697L30.5303 23.4697C30.8232 23.7626 30.8232 24.2374 30.5303 24.5303L24.5303 30.5303C24.2374 30.8232 23.7626 30.8232 23.4697 30.5303C23.1768 30.2374 23.1768 29.7626 23.4697 29.4697L28.1893 24.75H18C17.5858 24.75 17.25 24.4142 17.25 24C17.25 23.5858 17.5858 23.25 18 23.25H28.1893L23.4697 18.5303C23.1768 18.2374 23.1768 17.7626 23.4697 17.4697Z" fill="#000B26" fill-opacity="0.72"/>
</svg>
