<svg width="20" height="20" viewBox="0 0 20 20" fill="none" xmlns="http://www.w3.org/2000/svg">
<path fill-rule="evenodd" clip-rule="evenodd" d="M4.5325 1.61307C4.21421 1.83674 3.73913 2.23444 3.16024 2.91438C2.48981 3.70184 2.08498 4.63876 2.10421 5.58059C2.14871 7.76028 3.15893 10.8115 6.17459 13.8272C9.26116 16.9138 12.3229 17.9083 14.4923 17.9154C15.3875 17.9183 16.2749 17.529 17.0295 16.8935C17.7348 16.2994 18.15 15.8033 18.3836 15.471C18.3777 15.4582 18.3641 15.4364 18.3347 15.4129L15.0179 12.7594C14.9184 12.6798 14.775 12.6878 14.685 12.7779L14.052 13.4108C13.1895 14.2733 11.803 14.5045 10.7311 13.7711C8.89575 12.5154 7.42306 11.0092 6.22991 9.26966C5.49172 8.1934 5.72445 6.79816 6.59617 5.93396L7.22085 5.31467C7.31161 5.2247 7.3199 5.08075 7.24006 4.98096L4.57993 1.6558C4.56428 1.63624 4.54884 1.6234 4.53671 1.61564C4.53523 1.6147 4.53383 1.61384 4.5325 1.61307ZM2.01811 1.94199C2.68646 1.15697 3.264 0.667714 3.6962 0.367538C4.43833 -0.147887 5.30361 0.15923 5.75124 0.718759L8.41136 4.04391C8.97022 4.74248 8.91222 5.75008 8.2769 6.37992L7.65223 6.9992C7.23923 7.40864 7.18185 8.00562 7.4669 8.42122C8.55917 10.0137 9.90134 11.3859 11.5781 12.5331C11.9903 12.8151 12.5824 12.7591 12.9913 12.3501L13.6243 11.7172C14.2548 11.0867 15.2586 11.0311 15.9549 11.5881L19.2718 14.2416C19.8409 14.6969 20.1415 15.5735 19.622 16.3176C19.3114 16.7624 18.8047 17.3594 17.9958 18.0407C17.0433 18.8429 15.8239 19.4198 14.4874 19.4154C11.8678 19.4068 8.43986 18.2138 5.11393 14.8879C1.85533 11.6293 0.657769 8.21959 0.604523 5.61121C0.576034 4.21564 1.17298 2.93464 2.01811 1.94199Z" fill="#000B26" fill-opacity="0.32"/>
</svg>
