<svg width="20" height="20" viewBox="0 0 20 20" fill="none" xmlns="http://www.w3.org/2000/svg">
<path fill-rule="evenodd" clip-rule="evenodd" d="M10 10C11.1046 10 12 9.10457 12 8C12 6.89543 11.1046 6 10 6C8.89543 6 8 6.89543 8 8C8 9.10457 8.89543 10 10 10ZM10 11.5C11.933 11.5 13.5 9.933 13.5 8C13.5 6.067 11.933 4.5 10 4.5C8.067 4.5 6.5 6.067 6.5 8C6.5 9.933 8.067 11.5 10 11.5Z" fill="#000B26" fill-opacity="0.72"/>
<path fill-rule="evenodd" clip-rule="evenodd" d="M14.1185 14.1287C15.4819 12.3107 16.5 10.159 16.5 7.80488C16.5 4.35749 13.625 1.5 10 1.5C6.37502 1.5 3.5 4.35749 3.5 7.80488C3.5 10.159 4.51813 12.3107 5.88146 14.1287C7.24149 15.9424 8.86713 17.3181 9.88325 18.0846C9.92743 18.118 9.96753 18.1275 10 18.1275C10.0325 18.1275 10.0726 18.118 10.1168 18.0846C11.1329 17.3181 12.7585 15.9424 14.1185 14.1287ZM11.0201 19.2821C13.1763 17.6555 18 13.392 18 7.80488C18 3.49436 14.4183 0 10 0C5.58172 0 2 3.49436 2 7.80488C2 13.392 6.82374 17.6555 8.97986 19.2821C9.59039 19.7427 10.4096 19.7427 11.0201 19.2821Z" fill="#000B26" fill-opacity="0.72"/>
</svg>
