<svg width="14" height="14" viewBox="0 0 14 14" fill="none" xmlns="http://www.w3.org/2000/svg">
<path fill-rule="evenodd" clip-rule="evenodd" d="M10.625 6.125C10.625 8.61028 8.61028 10.625 6.125 10.625C3.63972 10.625 1.625 8.61028 1.625 6.125C1.625 3.63972 3.63972 1.625 6.125 1.625C8.61028 1.625 10.625 3.63972 10.625 6.125ZM9.80423 10.8649C8.78822 11.6547 7.51153 12.125 6.125 12.125C2.81129 12.125 0.125 9.43871 0.125 6.125C0.125 2.81129 2.81129 0.125 6.125 0.125C9.43871 0.125 12.125 2.81129 12.125 6.125C12.125 7.51153 11.6547 8.78822 10.8649 9.80423L13.6553 12.5947C13.9482 12.8876 13.9482 13.3624 13.6553 13.6553C13.3624 13.9482 12.8876 13.9482 12.5947 13.6553L9.80423 10.8649Z" fill="#000B26" fill-opacity="0.48"/>
</svg>
