<svg width="284" height="285" viewBox="0 25 284 285" fill="none" xmlns="http://www.w3.org/2000/svg">
<path d="M77.5793 260.766C82.7943 266.236 87.7293 269.764 91.6283 272.551C137.459 305.311 191.688 295.763 203.208 293.431C220.227 289.987 253.125 283.33 276.91 255.464C312.9 213.304 307.3 146.88 279.385 103.038C274.279 95.017 247.31 50.504 192.5 43.3654C159.32 39.045 120.655 47.76 92.6517 71.14C33.8713 120.196 38.0559 219.313 77.5793 260.766Z" fill="#EFEFF4"/>
<path d="M220.406 173.745C220.406 173.745 211.876 148.174 221.62 137.64C231.364 127.106 252.602 115.848 242.079 78.5992C235.919 56.7928 233.539 47.1594 232.635 42.9216C232.553 42.5363 232.383 42.1753 232.138 41.8668C231.893 41.5583 231.58 41.3107 231.223 41.1435C230.866 40.9763 230.476 40.8939 230.082 40.9029C229.688 40.912 229.302 41.012 228.953 41.1954C218.366 46.766 184.541 66.6978 184.545 93.9656C184.55 126.29 220.406 173.745 220.406 173.745Z" fill="#5FE0BB"/>
<path opacity="0.5" d="M223.332 54.1034C220.781 58.2726 218.659 62.6294 216.671 67.0646L215.937 68.732L215.237 70.412C214.769 71.532 214.305 72.652 213.878 73.793C212.987 76.054 212.198 78.3528 211.397 80.653C210.653 82.9686 209.889 85.273 209.256 87.6278C208.565 89.9616 207.986 92.3248 207.404 94.6894C206.346 99.4494 205.338 104.193 204.786 109.083C204.646 110.305 204.506 111.527 204.38 112.751L204.211 116.434L204.127 118.277L204.152 120.118L204.226 123.8L204.506 127.469L204.646 129.302L204.88 131.122C205.041 132.335 205.182 133.553 205.375 134.762L206.035 138.372C207.953 147.975 210.992 157.29 215.49 166.035C215.614 166.28 215.829 166.467 216.089 166.556C216.348 166.645 216.633 166.628 216.881 166.51C217.129 166.392 217.321 166.182 217.416 165.925C217.511 165.667 217.501 165.382 217.389 165.132L217.361 165.072C215.445 160.715 213.814 156.239 212.478 151.672C211.126 147.107 210.028 142.471 209.188 137.784L208.614 134.267C208.454 133.091 208.334 131.91 208.182 130.734L207.97 128.967L207.848 127.192L207.62 123.64L207.572 120.09L207.543 118.314L207.621 116.542L207.768 113C207.88 111.825 208.024 110.652 208.15 109.479C208.357 107.134 208.81 104.774 209.168 102.417C209.34 101.237 209.61 100.072 209.827 98.8978C210.068 97.7288 210.257 96.5486 210.541 95.3894C211.53 90.7148 212.76 86.0934 214.086 81.4958C214.786 79.211 215.486 76.9192 216.272 74.6582C216.638 73.5172 217.042 72.3902 217.448 71.2632L218.054 69.572L218.696 67.892C220.392 63.412 222.259 58.9726 224.366 54.6928L224.378 54.6718C224.443 54.5341 224.454 54.3764 224.407 54.2311C224.361 54.0858 224.26 53.9638 224.126 53.8903C223.993 53.8167 223.836 53.7971 223.688 53.8354C223.54 53.8737 223.413 53.9671 223.332 54.0964V54.1034Z" fill="white"/>
<path d="M188.268 265.607C185.683 267.084 211.375 230.201 216.621 174.502C219.093 148.255 217.08 115.694 231.085 102.207C242.742 90.9822 285.082 94.9134 298.959 96.5486C299.348 96.5938 299.715 96.7488 300.019 96.9955C300.323 97.2421 300.55 97.5702 300.675 97.9413C300.799 98.3124 300.815 98.7112 300.721 99.0911C300.627 99.471 300.426 99.8162 300.143 100.086C293.916 106.028 280.672 119.952 277.84 133.317C274.106 150.94 258.348 162.988 243.804 166.9C229.261 170.812 221.249 174.226 215.568 198.243C209.887 222.26 195.612 261.41 188.268 265.607Z" fill="#F1F1F1"/>
<path opacity="0.5" d="M280.14 105.126C271.281 106.106 262.708 108.849 254.926 113.193C251.008 115.364 247.385 118.028 244.146 121.121C240.926 124.241 238.095 127.802 235.925 131.747L235.119 133.229C234.854 133.726 234.634 134.244 234.391 134.75C234.147 135.257 233.908 135.774 233.691 136.281L233.051 137.805C232.196 139.833 231.353 141.868 230.523 143.911C228.866 147.993 227.276 152.1 225.751 156.231C222.695 164.491 219.904 172.858 217.631 181.391C217.606 181.496 217.621 181.606 217.675 181.7C217.728 181.793 217.816 181.863 217.919 181.894C218.022 181.925 218.133 181.915 218.229 181.866C218.325 181.817 218.399 181.734 218.435 181.632V181.62C219.814 177.463 221.269 173.313 222.804 169.202C224.318 165.081 225.879 160.978 227.486 156.893L229.914 150.773L232.408 144.679C233.237 142.648 234.084 140.623 234.948 138.605L235.591 137.09C235.803 136.583 236.04 136.11 236.264 135.62C236.488 135.13 236.699 134.64 236.95 134.162L237.72 132.747C239.761 128.967 242.47 125.571 245.501 122.516C247.041 121.001 248.678 119.588 250.401 118.286L251.042 117.794L251.703 117.323C252.146 117.012 252.58 116.689 253.029 116.388C253.935 115.796 254.835 115.192 255.774 114.649C259.487 112.409 263.474 110.617 267.569 109.128C271.669 107.626 275.901 106.511 280.209 105.798H280.23C280.315 105.782 280.39 105.734 280.441 105.664C280.492 105.594 280.513 105.507 280.502 105.421C280.49 105.335 280.446 105.257 280.378 105.203C280.311 105.149 280.225 105.123 280.139 105.131L280.14 105.126Z" fill="white"/>
<path d="M156.537 101.166C157.177 101.165 157.791 100.916 158.251 100.471C158.71 100.025 158.978 99.4184 158.998 98.7788C159.013 98.286 159.331 86.5456 155.82 74.0254C151.026 56.9314 141.358 46.7912 127.861 44.7024C121.076 43.651 115.034 45.2624 109.906 49.4876C93.9077 62.6728 92.3999 97.1464 92.3383 98.608C92.3227 99.2551 92.5624 99.8823 93.0055 100.354C93.4486 100.826 94.0596 101.105 94.7064 101.13C95.3532 101.155 95.9839 100.924 96.4621 100.488C96.9403 100.052 97.2277 99.4448 97.2621 98.7984C97.2747 98.4624 98.7461 65.0584 113.044 53.2858C117.096 49.9482 121.695 48.733 127.107 49.5716C155.134 53.9116 154.087 98.1796 154.073 98.6262C154.052 99.2784 154.291 99.912 154.738 100.388C155.184 100.864 155.801 101.144 156.453 101.166H156.537Z" fill="#7B818D"/>
<path d="M219.81 245.744L190.489 87.9904L102.609 86.54L74.2825 255.402H206.273C210.967 255.4 220.5 250.388 219.81 245.744Z" fill="#C2C8D3"/>
<path d="M85.5401 87.9904L102.609 86.54L74.2827 255.402H57.3427C56.5378 255.402 55.7431 255.222 55.0164 254.876C54.2897 254.53 53.6491 254.027 53.1414 253.402C52.6336 252.778 52.2714 252.048 52.0811 251.266C51.8907 250.484 51.877 249.669 52.0408 248.881L85.5401 87.9904Z" fill="#D2D5DF"/>
<path d="M113.68 100.803C114.316 100.805 114.929 100.559 115.388 100.118C115.848 99.6778 116.119 99.0763 116.145 98.4401C116.159 98.1041 117.629 64.7 131.927 52.9274C135.979 49.5898 140.578 48.3746 145.99 49.2118C173.975 53.5434 172.969 97.8213 172.955 98.2693C172.945 98.9167 173.189 99.5424 173.636 100.011C174.083 100.48 174.696 100.753 175.344 100.773C175.991 100.793 176.62 100.557 177.095 100.117C177.569 99.6769 177.852 99.0673 177.881 98.4205C177.896 97.9263 178.215 86.1872 174.703 73.6656C169.909 56.5716 160.241 46.4314 146.743 44.3426C139.958 43.2926 133.918 44.9026 128.79 49.1292C112.791 62.313 111.279 96.7867 111.223 98.2483C111.21 98.5714 111.261 98.8939 111.373 99.1973C111.485 99.5007 111.655 99.7791 111.875 100.017C112.095 100.254 112.359 100.446 112.653 100.581C112.946 100.716 113.264 100.792 113.587 100.805L113.68 100.803Z" fill="#7B818D"/>
<path d="M292.548 261.229C292.545 262.165 292.172 263.062 291.51 263.724C290.847 264.385 289.95 264.758 289.014 264.76H97.934C96.9982 264.758 96.1014 264.385 95.4393 263.724C94.7772 263.063 94.4037 262.166 94.4004 261.231L92.8114 151.422C92.8114 149.48 95.0976 145.69 99.2906 145.974L286.035 141.14C287.241 141.108 288.44 141.322 289.56 141.767C290.681 142.213 291.699 142.881 292.553 143.732C293.408 144.583 294.08 145.599 294.53 146.717C294.98 147.836 295.199 149.034 295.172 150.24L292.548 261.229Z" fill="#7B818D"/>
<path d="M289.059 257.843C289.054 258.728 288.7 259.575 288.074 260.201C287.448 260.827 286.601 261.18 285.716 261.184H102.543C101.657 261.182 100.808 260.829 100.181 260.203C99.555 259.577 99.2019 258.728 99.1993 257.843L97.6985 158.163C97.8749 152.164 103.135 150.008 106.323 150.135L285.3 145.333C286.148 145.311 286.992 145.461 287.78 145.775C288.568 146.088 289.284 146.559 289.884 147.158C290.485 147.757 290.957 148.472 291.273 149.259C291.589 150.047 291.741 150.89 291.72 151.738L289.059 257.843Z" fill="white"/>
<path d="M101.179 210.485C101.244 210.484 101.307 210.471 101.367 210.445C101.426 210.42 101.48 210.383 101.525 210.337C101.57 210.291 101.606 210.236 101.63 210.176C101.654 210.117 101.666 210.052 101.665 209.988L101.546 201.903C101.544 201.774 101.491 201.652 101.4 201.561C101.308 201.471 101.185 201.42 101.056 201.42C100.926 201.422 100.802 201.476 100.711 201.569C100.621 201.663 100.571 201.788 100.573 201.918L100.692 210.002C100.694 210.13 100.746 210.253 100.837 210.343C100.928 210.433 101.051 210.484 101.179 210.485Z" fill="#F1F1F1"/>
<path d="M100.888 190.673C100.952 190.672 101.016 190.659 101.075 190.633C101.134 190.608 101.188 190.571 101.233 190.525C101.277 190.479 101.313 190.424 101.337 190.364C101.36 190.305 101.372 190.241 101.371 190.176L100.916 159.214C100.925 157.374 101.476 155.906 102.575 154.859C104.615 152.899 107.853 153.005 107.99 153.011L165.196 151.471C165.325 151.467 165.448 151.412 165.538 151.318C165.627 151.224 165.675 151.098 165.672 150.968C165.673 150.903 165.66 150.838 165.635 150.778C165.61 150.718 165.573 150.664 165.525 150.619C165.478 150.574 165.422 150.539 165.361 150.517C165.299 150.495 165.234 150.486 165.169 150.491L107.997 152.031C107.642 152.01 104.194 151.949 101.898 154.15C100.607 155.388 99.9459 157.09 99.9375 159.217L100.393 190.19C100.394 190.32 100.448 190.444 100.54 190.534C100.633 190.625 100.758 190.675 100.888 190.673Z" fill="#F1F1F1"/>
<path d="M300.911 273.492H89.153C88.1942 273.492 87.417 272.715 87.417 271.756V265.963C87.417 265.004 88.1942 264.227 89.153 264.227H300.911C301.87 264.227 302.647 265.004 302.647 265.963V271.756C302.647 272.715 301.87 273.492 300.911 273.492Z" fill="#A8B2BC"/>
<path opacity="0.45" d="M235.343 184.7H278.975C282.283 184.7 284.964 187.381 284.964 190.689V235.03C284.964 238.337 282.283 241.019 278.975 241.019H235.343C232.035 241.019 229.354 238.337 229.354 235.03V190.689C229.354 187.381 232.035 184.7 235.343 184.7Z" fill="#D2D5DF"/>
<path opacity="0.45" d="M173.099 184.429H216.731C220.039 184.429 222.72 187.111 222.72 190.418V234.759C222.72 238.067 220.039 240.749 216.731 240.749H173.099C169.791 240.749 167.109 238.067 167.109 234.759V190.418C167.109 187.111 169.791 184.429 173.099 184.429Z" fill="#D2D5DF"/>
<path opacity="0.45" d="M110.854 184.7H154.487C157.795 184.7 160.476 187.381 160.476 190.689V235.03C160.476 238.337 157.795 241.019 154.487 241.019H110.854C107.547 241.019 104.865 238.337 104.865 235.03V190.689C104.865 187.381 107.547 184.7 110.854 184.7Z" fill="#D2D5DF"/>
<path d="M240.334 189.555C240.464 189.049 240.759 188.601 241.172 188.281C241.586 187.961 242.093 187.787 242.616 187.787H270.824C271.347 187.787 271.855 187.961 272.268 188.281C272.681 188.601 272.976 189.049 273.106 189.555C274.673 195.621 280.23 216.083 281.294 233.397C281.316 233.775 281.223 234.15 281.027 234.473C280.83 234.796 280.54 235.052 280.195 235.206C277.207 236.536 269.102 239.654 263.056 237.38C262.768 237.27 262.513 237.09 262.314 236.856C262.114 236.623 261.976 236.343 261.912 236.042C261.143 232.497 258.342 219.828 256.719 215.866C255.097 219.828 252.297 232.497 251.528 236.042C251.464 236.343 251.326 236.623 251.126 236.857C250.926 237.09 250.67 237.27 250.383 237.38C244.338 239.654 236.233 236.54 233.246 235.206C232.9 235.052 232.61 234.796 232.414 234.473C232.217 234.15 232.124 233.775 232.147 233.397C233.211 216.083 238.766 195.621 240.334 189.555Z" fill="#19D791"/>
<path d="M273.4 199.932C273.532 199.92 273.656 199.862 273.749 199.767C273.843 199.673 273.899 199.549 273.91 199.416C273.92 199.284 273.882 199.153 273.804 199.045C273.727 198.938 273.613 198.861 273.484 198.83C269.294 198.191 266.533 196.434 265.276 193.609C264.715 192.346 264.491 190.96 264.625 189.584C264.627 189.449 264.579 189.318 264.492 189.215C264.405 189.112 264.283 189.044 264.15 189.024C264.016 189.004 263.88 189.032 263.766 189.104C263.652 189.176 263.568 189.287 263.529 189.416C263.362 191.002 263.615 192.603 264.264 194.06C265.244 196.255 267.601 199.055 273.316 199.926C273.344 199.93 273.372 199.932 273.4 199.932Z" fill="white"/>
<path d="M240.744 199.024H240.773C244.133 198.849 246.989 197.146 249.053 194.095C249.995 192.697 250.704 191.156 251.153 189.531C251.183 189.456 251.197 189.376 251.193 189.296C251.19 189.216 251.169 189.137 251.132 189.066C251.096 188.994 251.044 188.931 250.981 188.882C250.918 188.832 250.845 188.796 250.767 188.777C250.689 188.758 250.608 188.756 250.529 188.771C250.45 188.786 250.375 188.818 250.309 188.865C250.244 188.911 250.189 188.971 250.149 189.041C250.109 189.11 250.084 189.188 250.076 189.268C249.65 190.773 248.988 192.202 248.115 193.5C246.231 196.273 243.741 197.759 240.716 197.916C240.584 197.939 240.464 198.008 240.379 198.112C240.294 198.216 240.249 198.347 240.253 198.481C240.256 198.615 240.308 198.744 240.398 198.843C240.488 198.943 240.611 199.006 240.744 199.023V199.024Z" fill="white"/>
<path d="M255.258 202.048H255.319L256.522 201.908C257.325 201.82 258.067 201.438 258.605 200.837C259.144 200.235 259.442 199.455 259.441 198.648V189.497C259.422 189.364 259.355 189.242 259.254 189.153C259.152 189.065 259.021 189.016 258.887 189.016C258.752 189.016 258.621 189.065 258.52 189.153C258.418 189.242 258.351 189.364 258.332 189.497V198.648C258.333 199.183 258.136 199.699 257.779 200.097C257.423 200.496 256.932 200.748 256.4 200.807L255.198 200.947C255.067 200.975 254.951 201.048 254.87 201.154C254.789 201.26 254.749 201.391 254.756 201.525C254.763 201.658 254.818 201.784 254.91 201.88C255.002 201.977 255.125 202.038 255.258 202.051V202.048Z" fill="white"/>
<path d="M233.815 233.476C233.866 233.475 233.916 233.455 233.953 233.42C233.99 233.385 234.012 233.336 234.015 233.285L234.032 232.984C234.035 232.931 234.017 232.878 233.981 232.838C233.945 232.798 233.895 232.774 233.842 232.771C233.788 232.768 233.736 232.787 233.696 232.823C233.656 232.858 233.632 232.908 233.629 232.962L233.613 233.263C233.612 233.289 233.615 233.316 233.624 233.341C233.633 233.366 233.646 233.389 233.664 233.409C233.682 233.429 233.703 233.445 233.727 233.456C233.751 233.468 233.777 233.474 233.804 233.476H233.815ZM233.871 232.47C233.922 232.47 233.972 232.45 234.009 232.415C234.046 232.379 234.068 232.331 234.071 232.28L234.089 231.979C234.093 231.952 234.09 231.924 234.082 231.898C234.075 231.872 234.062 231.847 234.044 231.826C234.026 231.805 234.005 231.788 233.98 231.775C233.956 231.763 233.929 231.756 233.902 231.754C233.874 231.752 233.847 231.756 233.821 231.766C233.795 231.775 233.772 231.789 233.752 231.808C233.732 231.827 233.716 231.849 233.705 231.874C233.694 231.899 233.688 231.926 233.688 231.954L233.669 232.256C233.668 232.283 233.671 232.309 233.68 232.334C233.688 232.359 233.702 232.382 233.719 232.402C233.737 232.422 233.758 232.438 233.782 232.449C233.806 232.461 233.832 232.468 233.858 232.469L233.871 232.47ZM233.933 231.464C233.984 231.464 234.033 231.444 234.071 231.409C234.108 231.374 234.131 231.326 234.134 231.275L234.154 230.974C234.157 230.92 234.139 230.868 234.104 230.827C234.069 230.787 234.019 230.762 233.965 230.759C233.912 230.755 233.859 230.773 233.819 230.809C233.779 230.844 233.754 230.894 233.751 230.947L233.731 231.25C233.729 231.276 233.733 231.303 233.741 231.328C233.75 231.353 233.763 231.376 233.781 231.396C233.799 231.416 233.82 231.432 233.844 231.444C233.868 231.455 233.894 231.462 233.92 231.464H233.933ZM234.001 230.459C234.052 230.458 234.101 230.439 234.138 230.404C234.175 230.369 234.198 230.322 234.201 230.271L234.222 229.97C234.224 229.918 234.206 229.867 234.171 229.829C234.136 229.79 234.088 229.766 234.036 229.762C233.984 229.759 233.932 229.775 233.892 229.808C233.852 229.841 233.826 229.889 233.821 229.941L233.8 230.242C233.797 230.268 233.801 230.295 233.809 230.32C233.817 230.345 233.83 230.368 233.848 230.388C233.865 230.408 233.886 230.425 233.91 230.437C233.934 230.448 233.959 230.455 233.986 230.457L234.001 230.459ZM234.074 229.453C234.125 229.453 234.174 229.434 234.211 229.4C234.248 229.365 234.271 229.318 234.276 229.267L234.298 228.965C234.3 228.913 234.282 228.861 234.247 228.822C234.213 228.783 234.164 228.759 234.112 228.755C234.06 228.751 234.008 228.767 233.968 228.801C233.928 228.834 233.902 228.882 233.896 228.934L233.872 229.236C233.869 229.29 233.886 229.342 233.921 229.383C233.956 229.423 234.005 229.448 234.059 229.452L234.074 229.453ZM234.154 228.448C234.204 228.448 234.253 228.429 234.29 228.395C234.327 228.361 234.35 228.314 234.354 228.263L234.379 227.962C234.384 227.909 234.367 227.856 234.332 227.815C234.298 227.775 234.248 227.749 234.195 227.745C234.142 227.74 234.089 227.757 234.048 227.792C234.007 227.826 233.982 227.876 233.977 227.929L233.952 228.23C233.948 228.283 233.965 228.336 234 228.377C234.034 228.417 234.084 228.443 234.137 228.447L234.154 228.448ZM234.239 227.443C234.29 227.443 234.338 227.424 234.375 227.39C234.412 227.356 234.435 227.31 234.439 227.26L234.466 226.959C234.471 226.906 234.454 226.853 234.42 226.812C234.386 226.771 234.337 226.745 234.284 226.74C234.231 226.736 234.177 226.752 234.136 226.787C234.095 226.821 234.069 226.87 234.064 226.924L234.038 227.225C234.035 227.251 234.038 227.278 234.046 227.303C234.054 227.328 234.067 227.352 234.084 227.372C234.101 227.392 234.122 227.409 234.145 227.421C234.169 227.433 234.195 227.441 234.221 227.443H234.239ZM234.33 226.439C234.38 226.439 234.429 226.421 234.466 226.387C234.503 226.353 234.526 226.307 234.53 226.257L234.558 225.956C234.563 225.929 234.562 225.901 234.555 225.874C234.548 225.847 234.536 225.822 234.519 225.8C234.502 225.778 234.481 225.76 234.457 225.747C234.433 225.733 234.406 225.725 234.378 225.722C234.351 225.72 234.323 225.723 234.297 225.731C234.271 225.74 234.246 225.754 234.226 225.772C234.205 225.791 234.188 225.813 234.177 225.838C234.165 225.863 234.159 225.891 234.158 225.918L234.129 226.219C234.124 226.273 234.14 226.326 234.174 226.367C234.209 226.408 234.257 226.434 234.311 226.439H234.33ZM234.427 225.437C234.477 225.437 234.525 225.418 234.562 225.384C234.599 225.351 234.622 225.305 234.627 225.255L234.658 224.954C234.66 224.927 234.658 224.901 234.65 224.875C234.643 224.85 234.63 224.826 234.613 224.806C234.597 224.785 234.576 224.768 234.553 224.756C234.529 224.743 234.504 224.735 234.477 224.733C234.451 224.73 234.424 224.733 234.399 224.74C234.373 224.748 234.35 224.76 234.329 224.777C234.309 224.794 234.292 224.815 234.279 224.838C234.266 224.861 234.259 224.887 234.256 224.913L234.227 225.214C234.224 225.241 234.226 225.267 234.234 225.293C234.242 225.318 234.254 225.342 234.271 225.362C234.288 225.383 234.308 225.4 234.332 225.412C234.355 225.425 234.381 225.433 234.407 225.435L234.427 225.437ZM234.529 224.433C234.579 224.434 234.627 224.416 234.664 224.382C234.701 224.349 234.724 224.303 234.729 224.254L234.761 223.953C234.765 223.901 234.748 223.85 234.714 223.811C234.681 223.771 234.633 223.746 234.582 223.74C234.53 223.735 234.479 223.749 234.438 223.781C234.396 223.812 234.369 223.858 234.361 223.909L234.329 224.21C234.323 224.264 234.339 224.317 234.373 224.359C234.406 224.4 234.455 224.427 234.508 224.433H234.529ZM234.638 223.432C234.688 223.432 234.735 223.413 234.772 223.38C234.809 223.347 234.833 223.302 234.838 223.253L234.872 222.952C234.878 222.899 234.862 222.845 234.829 222.803C234.796 222.761 234.747 222.734 234.693 222.729C234.64 222.723 234.587 222.738 234.545 222.772C234.503 222.805 234.476 222.854 234.47 222.907L234.437 223.208C234.431 223.261 234.447 223.315 234.48 223.356C234.514 223.398 234.563 223.425 234.616 223.431L234.638 223.432ZM234.752 222.43C234.801 222.429 234.848 222.411 234.885 222.378C234.922 222.346 234.946 222.301 234.952 222.252L234.987 221.952C234.993 221.899 234.978 221.846 234.945 221.804C234.912 221.762 234.863 221.735 234.81 221.728C234.757 221.722 234.704 221.737 234.662 221.77C234.62 221.803 234.593 221.852 234.586 221.905L234.551 222.206C234.548 222.232 234.55 222.258 234.558 222.284C234.565 222.309 234.577 222.333 234.593 222.354C234.61 222.374 234.63 222.392 234.653 222.404C234.676 222.417 234.702 222.425 234.728 222.428L234.752 222.43ZM234.872 221.429C234.921 221.429 234.968 221.411 235.005 221.378C235.042 221.346 235.065 221.301 235.071 221.252L235.109 220.953C235.115 220.9 235.101 220.846 235.068 220.804C235.035 220.761 234.987 220.734 234.934 220.727C234.88 220.721 234.827 220.735 234.785 220.768C234.742 220.801 234.715 220.849 234.708 220.902L234.67 221.203C234.667 221.23 234.669 221.256 234.677 221.282C234.684 221.307 234.696 221.331 234.712 221.352C234.729 221.373 234.749 221.39 234.772 221.403C234.795 221.416 234.82 221.424 234.847 221.427L234.872 221.429ZM234.997 220.429C235.046 220.429 235.093 220.411 235.13 220.379C235.167 220.346 235.191 220.301 235.197 220.253L235.235 219.953C235.238 219.902 235.222 219.852 235.189 219.812C235.156 219.772 235.11 219.747 235.059 219.74C235.009 219.734 234.957 219.747 234.916 219.776C234.874 219.806 234.845 219.851 234.836 219.901L234.796 220.202C234.793 220.229 234.795 220.255 234.802 220.281C234.809 220.306 234.821 220.33 234.837 220.351C234.853 220.372 234.874 220.39 234.897 220.403C234.92 220.416 234.945 220.424 234.971 220.428L234.997 220.429ZM235.128 219.429C235.177 219.429 235.224 219.412 235.261 219.38C235.297 219.347 235.321 219.303 235.327 219.254L235.368 218.955C235.373 218.928 235.372 218.9 235.366 218.873C235.361 218.847 235.349 218.821 235.333 218.799C235.317 218.777 235.297 218.758 235.273 218.744C235.25 218.73 235.223 218.721 235.196 218.717C235.169 218.713 235.141 218.715 235.115 218.723C235.089 218.73 235.064 218.743 235.043 218.76C235.021 218.777 235.004 218.799 234.991 218.823C234.978 218.848 234.971 218.874 234.969 218.902L234.928 219.201C234.924 219.228 234.926 219.254 234.933 219.28C234.94 219.306 234.952 219.33 234.968 219.351C234.984 219.372 235.004 219.389 235.027 219.403C235.05 219.416 235.075 219.425 235.102 219.428L235.128 219.429ZM235.268 218.431C235.317 218.431 235.364 218.414 235.401 218.382C235.438 218.35 235.462 218.306 235.468 218.258L235.51 217.958C235.515 217.931 235.515 217.904 235.508 217.878C235.502 217.851 235.491 217.826 235.475 217.804C235.459 217.782 235.439 217.764 235.416 217.75C235.393 217.736 235.367 217.727 235.34 217.723C235.313 217.719 235.286 217.721 235.26 217.728C235.233 217.735 235.209 217.747 235.188 217.764C235.166 217.781 235.148 217.801 235.135 217.825C235.122 217.849 235.114 217.875 235.111 217.902L235.069 218.202C235.066 218.228 235.067 218.254 235.074 218.28C235.08 218.305 235.092 218.329 235.108 218.351C235.123 218.372 235.143 218.389 235.166 218.403C235.189 218.416 235.214 218.425 235.24 218.428L235.268 218.431ZM235.408 217.433C235.457 217.433 235.503 217.416 235.54 217.384C235.577 217.352 235.601 217.309 235.608 217.261L235.652 216.961C235.66 216.908 235.646 216.854 235.614 216.812C235.582 216.769 235.535 216.74 235.482 216.732C235.429 216.725 235.375 216.738 235.332 216.77C235.289 216.802 235.261 216.85 235.253 216.902L235.209 217.202C235.205 217.228 235.207 217.255 235.213 217.28C235.219 217.306 235.231 217.33 235.247 217.351C235.262 217.373 235.282 217.391 235.305 217.404C235.327 217.418 235.353 217.426 235.379 217.43L235.408 217.433ZM235.557 216.436C235.605 216.436 235.651 216.419 235.688 216.387C235.724 216.355 235.748 216.312 235.755 216.264L235.802 215.966C235.806 215.94 235.804 215.913 235.798 215.887C235.792 215.861 235.781 215.837 235.765 215.816C235.733 215.773 235.686 215.744 235.633 215.736C235.58 215.727 235.526 215.741 235.483 215.772C235.44 215.804 235.411 215.851 235.403 215.904L235.356 216.204C235.349 216.257 235.362 216.31 235.394 216.353C235.426 216.396 235.473 216.425 235.526 216.433L235.557 216.436ZM235.711 215.439C235.759 215.44 235.805 215.423 235.841 215.392C235.878 215.361 235.902 215.317 235.909 215.27L235.957 214.972C235.966 214.919 235.953 214.865 235.921 214.821C235.89 214.778 235.843 214.749 235.79 214.74C235.737 214.732 235.683 214.744 235.639 214.776C235.596 214.807 235.567 214.855 235.558 214.907L235.512 215.207C235.508 215.233 235.509 215.26 235.515 215.285C235.521 215.311 235.532 215.335 235.547 215.356C235.563 215.378 235.582 215.396 235.605 215.41C235.627 215.423 235.652 215.433 235.678 215.437C235.688 215.439 235.699 215.44 235.709 215.439H235.711ZM235.87 214.444C235.918 214.444 235.964 214.427 236 214.396C236.037 214.365 236.061 214.322 236.069 214.275L236.118 213.978C236.123 213.951 236.123 213.924 236.118 213.898C236.112 213.871 236.101 213.846 236.086 213.824C236.071 213.802 236.051 213.783 236.028 213.768C236.005 213.754 235.98 213.744 235.953 213.74C235.926 213.736 235.899 213.736 235.873 213.743C235.847 213.749 235.822 213.761 235.8 213.777C235.779 213.793 235.76 213.813 235.747 213.836C235.733 213.86 235.724 213.885 235.72 213.912L235.671 214.21C235.667 214.236 235.668 214.263 235.674 214.289C235.68 214.315 235.691 214.339 235.706 214.361C235.722 214.382 235.742 214.4 235.764 214.414C235.787 214.428 235.812 214.437 235.838 214.441C235.848 214.443 235.858 214.444 235.869 214.444H235.87ZM236.035 213.45C236.083 213.45 236.129 213.433 236.165 213.402C236.202 213.371 236.226 213.329 236.234 213.282L236.285 212.984C236.293 212.931 236.281 212.877 236.25 212.833C236.219 212.79 236.172 212.76 236.119 212.751C236.067 212.743 236.013 212.755 235.969 212.786C235.925 212.817 235.896 212.864 235.887 212.917L235.837 213.215C235.832 213.241 235.833 213.268 235.838 213.294C235.844 213.32 235.855 213.344 235.871 213.366C235.886 213.387 235.905 213.406 235.928 213.42C235.951 213.434 235.976 213.443 236.002 213.447L236.035 213.45ZM236.206 212.456C236.254 212.456 236.3 212.439 236.336 212.409C236.372 212.379 236.397 212.336 236.405 212.289L236.457 211.993C236.466 211.94 236.454 211.886 236.423 211.842C236.393 211.798 236.346 211.768 236.293 211.759C236.24 211.75 236.186 211.762 236.142 211.792C236.098 211.823 236.068 211.87 236.059 211.923L236.007 212.221C236.003 212.247 236.003 212.274 236.009 212.299C236.015 212.325 236.026 212.35 236.041 212.371C236.056 212.393 236.075 212.411 236.098 212.425C236.12 212.439 236.145 212.449 236.171 212.453C236.182 212.455 236.194 212.456 236.205 212.456H236.206ZM236.383 211.465C236.43 211.465 236.476 211.448 236.512 211.417C236.548 211.387 236.573 211.345 236.581 211.298L236.635 211.001C236.641 210.975 236.641 210.947 236.636 210.921C236.632 210.894 236.621 210.868 236.606 210.846C236.591 210.823 236.572 210.804 236.549 210.789C236.527 210.774 236.501 210.763 236.474 210.758C236.448 210.753 236.42 210.754 236.394 210.76C236.367 210.766 236.342 210.777 236.32 210.793C236.298 210.809 236.279 210.829 236.265 210.853C236.251 210.876 236.242 210.902 236.238 210.929L236.184 211.227C236.174 211.279 236.186 211.333 236.217 211.377C236.247 211.421 236.294 211.451 236.346 211.461L236.383 211.465ZM236.565 210.472C236.612 210.472 236.657 210.456 236.694 210.426C236.73 210.396 236.755 210.355 236.763 210.308L236.819 210.012C236.829 209.959 236.818 209.905 236.788 209.861C236.758 209.816 236.712 209.786 236.659 209.776C236.607 209.766 236.552 209.777 236.508 209.807C236.464 209.837 236.433 209.884 236.423 209.936L236.367 210.234C236.357 210.287 236.369 210.341 236.399 210.385C236.429 210.429 236.476 210.46 236.528 210.469C236.54 210.472 236.551 210.473 236.563 210.472H236.565ZM236.754 209.482C236.8 209.482 236.846 209.466 236.882 209.436C236.918 209.406 236.942 209.365 236.951 209.319L237.008 209.022C237.019 208.969 237.008 208.915 236.978 208.871C236.948 208.826 236.901 208.795 236.849 208.785C236.796 208.775 236.742 208.786 236.697 208.816C236.653 208.846 236.622 208.892 236.612 208.945L236.555 209.243C236.55 209.269 236.55 209.296 236.555 209.322C236.56 209.347 236.571 209.372 236.586 209.394C236.6 209.416 236.619 209.434 236.642 209.449C236.664 209.463 236.688 209.473 236.714 209.478C236.727 209.481 236.739 209.482 236.752 209.482H236.754ZM236.947 208.493C236.993 208.493 237.038 208.477 237.074 208.448C237.11 208.418 237.135 208.377 237.144 208.332L237.204 208.035C237.21 208.009 237.21 207.982 237.205 207.956C237.199 207.93 237.189 207.905 237.175 207.883C237.16 207.861 237.141 207.842 237.119 207.827C237.097 207.812 237.072 207.802 237.046 207.797C237.02 207.792 236.993 207.792 236.967 207.797C236.941 207.802 236.917 207.812 236.894 207.827C236.872 207.841 236.853 207.86 236.839 207.882C236.824 207.904 236.813 207.929 236.808 207.955L236.749 208.252C236.744 208.278 236.744 208.305 236.749 208.331C236.754 208.357 236.764 208.382 236.779 208.404C236.794 208.426 236.813 208.445 236.835 208.46C236.857 208.474 236.882 208.485 236.908 208.49C236.92 208.492 236.933 208.493 236.945 208.493H236.947ZM237.147 207.513C237.193 207.513 237.238 207.497 237.274 207.467C237.31 207.438 237.335 207.397 237.344 207.352L237.405 207.055C237.414 207.003 237.402 206.95 237.373 206.906C237.344 206.863 237.298 206.833 237.247 206.822C237.195 206.811 237.142 206.821 237.097 206.85C237.053 206.878 237.022 206.922 237.01 206.974L236.95 207.27C236.939 207.323 236.949 207.377 236.979 207.422C237.008 207.467 237.054 207.498 237.106 207.508C237.12 207.507 237.133 207.504 237.146 207.5L237.147 207.513ZM237.353 206.533C237.399 206.532 237.443 206.516 237.479 206.487C237.515 206.458 237.539 206.418 237.549 206.373L237.612 206.078C237.62 206.027 237.608 205.975 237.579 205.932C237.55 205.89 237.506 205.86 237.455 205.849C237.405 205.838 237.352 205.847 237.308 205.874C237.264 205.9 237.232 205.943 237.218 205.992L237.155 206.289C237.15 206.315 237.149 206.342 237.154 206.368C237.159 206.394 237.169 206.419 237.183 206.441C237.198 206.463 237.217 206.482 237.238 206.497C237.26 206.512 237.285 206.523 237.311 206.528L237.353 206.533ZM237.564 205.553C237.61 205.553 237.655 205.537 237.691 205.508C237.726 205.479 237.751 205.438 237.76 205.393L237.825 205.099C237.832 205.073 237.833 205.045 237.829 205.019C237.825 204.992 237.816 204.966 237.802 204.943C237.788 204.919 237.769 204.899 237.747 204.884C237.725 204.868 237.7 204.857 237.673 204.851C237.647 204.845 237.619 204.844 237.592 204.85C237.566 204.855 237.54 204.865 237.518 204.88C237.495 204.895 237.476 204.915 237.461 204.937C237.446 204.96 237.436 204.986 237.431 205.012L237.367 205.308C237.361 205.334 237.36 205.36 237.365 205.386C237.37 205.412 237.379 205.437 237.394 205.46C237.408 205.482 237.427 205.501 237.449 205.516C237.47 205.531 237.495 205.542 237.521 205.547C237.535 205.547 237.549 205.544 237.563 205.54L237.564 205.553ZM237.781 204.573C237.827 204.572 237.871 204.557 237.907 204.528C237.943 204.499 237.967 204.459 237.977 204.414L238.044 204.12C238.056 204.068 238.047 204.013 238.018 203.968C237.989 203.923 237.944 203.89 237.892 203.878C237.84 203.867 237.785 203.876 237.74 203.905C237.695 203.933 237.663 203.979 237.651 204.031L237.584 204.326C237.572 204.378 237.582 204.433 237.61 204.478C237.639 204.523 237.684 204.555 237.736 204.567C237.751 204.562 237.766 204.556 237.78 204.549L237.781 204.573ZM238.005 203.593C238.05 203.592 238.094 203.577 238.13 203.549C238.165 203.521 238.191 203.481 238.201 203.437L238.268 203.143C238.276 203.117 238.278 203.09 238.275 203.063C238.271 203.035 238.262 203.009 238.248 202.986C238.235 202.962 238.216 202.942 238.194 202.926C238.172 202.909 238.147 202.898 238.121 202.892C238.094 202.885 238.067 202.884 238.04 202.889C238.013 202.894 237.987 202.904 237.964 202.919C237.942 202.934 237.922 202.953 237.907 202.976C237.892 202.999 237.881 203.024 237.876 203.051L237.808 203.346C237.802 203.372 237.801 203.399 237.805 203.425C237.81 203.451 237.819 203.476 237.833 203.499C237.847 203.521 237.865 203.541 237.887 203.556C237.909 203.572 237.933 203.583 237.959 203.588C237.973 203.582 237.987 203.574 238 203.565L238.005 203.593ZM238.233 202.613C238.279 202.613 238.323 202.598 238.359 202.57C238.395 202.541 238.419 202.502 238.429 202.457L238.499 202.165C238.506 202.139 238.508 202.112 238.504 202.085C238.501 202.058 238.492 202.033 238.478 202.01C238.464 201.986 238.446 201.966 238.424 201.95C238.402 201.934 238.378 201.923 238.351 201.917C238.325 201.91 238.298 201.909 238.272 201.914C238.245 201.918 238.22 201.928 238.197 201.942C238.174 201.957 238.155 201.975 238.139 201.998C238.124 202.02 238.113 202.045 238.107 202.071L238.037 202.365C238.025 202.417 238.034 202.472 238.062 202.517C238.09 202.562 238.135 202.595 238.187 202.607C238.203 202.601 238.218 202.593 238.232 202.583L238.233 202.613ZM238.47 201.633C238.515 201.633 238.559 201.617 238.594 201.589C238.629 201.562 238.654 201.523 238.665 201.479L238.737 201.186C238.75 201.134 238.742 201.079 238.714 201.033C238.686 200.988 238.642 200.955 238.59 200.942C238.538 200.929 238.483 200.937 238.437 200.965C238.391 200.993 238.358 201.038 238.345 201.089L238.274 201.384C238.268 201.409 238.267 201.436 238.271 201.462C238.275 201.488 238.284 201.513 238.298 201.536C238.311 201.559 238.33 201.578 238.351 201.594C238.372 201.61 238.397 201.621 238.422 201.627C238.439 201.621 238.454 201.613 238.469 201.603L238.47 201.633ZM238.711 200.653C238.756 200.653 238.8 200.638 238.835 200.61C238.871 200.583 238.896 200.544 238.907 200.5L238.981 200.208C238.994 200.156 238.986 200.1 238.959 200.054C238.931 200.008 238.887 199.975 238.835 199.962C238.783 199.949 238.728 199.957 238.682 199.984C238.635 200.012 238.602 200.056 238.589 200.108L238.516 200.402C238.508 200.432 238.507 200.463 238.513 200.493C238.519 200.523 238.532 200.552 238.551 200.576C238.57 200.6 238.594 200.62 238.622 200.633C238.65 200.646 238.68 200.653 238.711 200.653ZM238.96 199.673C239.005 199.673 239.048 199.658 239.083 199.63C239.118 199.603 239.143 199.565 239.155 199.522L239.23 199.229C239.247 199.177 239.243 199.121 239.218 199.072C239.194 199.023 239.151 198.986 239.099 198.969C239.047 198.952 238.991 198.956 238.942 198.981C238.894 199.005 238.857 199.048 238.84 199.1L238.764 199.393C238.75 199.444 238.757 199.498 238.783 199.544C238.81 199.59 238.853 199.624 238.904 199.638C238.921 199.644 238.94 199.648 238.959 199.648L238.96 199.673ZM239.215 198.693C239.259 198.693 239.302 198.678 239.337 198.651C239.373 198.624 239.398 198.586 239.409 198.543L239.486 198.25C239.497 198.2 239.488 198.147 239.461 198.103C239.434 198.058 239.391 198.026 239.341 198.013C239.291 198 239.238 198.006 239.192 198.031C239.147 198.056 239.113 198.097 239.097 198.147L239.019 198.439C239.005 198.491 239.012 198.545 239.038 198.591C239.064 198.637 239.108 198.671 239.159 198.686C239.178 198.684 239.196 198.68 239.213 198.672L239.215 198.693ZM239.475 197.713C239.52 197.713 239.563 197.698 239.598 197.671C239.633 197.644 239.658 197.606 239.67 197.563L239.75 197.272C239.764 197.22 239.757 197.165 239.73 197.119C239.704 197.072 239.66 197.038 239.608 197.024C239.557 197.01 239.501 197.017 239.455 197.043C239.408 197.07 239.374 197.114 239.36 197.165L239.281 197.458C239.267 197.509 239.274 197.564 239.3 197.61C239.326 197.657 239.369 197.691 239.421 197.706C239.438 197.706 239.456 197.704 239.474 197.7L239.475 197.713ZM239.744 196.733C239.787 196.733 239.829 196.72 239.864 196.695C239.899 196.67 239.924 196.634 239.937 196.593L240.02 196.302C240.027 196.276 240.029 196.249 240.026 196.223C240.023 196.197 240.014 196.171 240.001 196.148C239.988 196.125 239.971 196.104 239.95 196.088C239.929 196.072 239.905 196.059 239.88 196.052C239.854 196.045 239.827 196.043 239.801 196.046C239.775 196.049 239.749 196.058 239.726 196.071C239.703 196.084 239.683 196.101 239.666 196.122C239.65 196.143 239.638 196.167 239.631 196.192L239.549 196.485C239.535 196.536 239.542 196.591 239.568 196.638C239.594 196.684 239.638 196.718 239.689 196.733C239.708 196.731 239.726 196.727 239.743 196.72L239.744 196.733ZM240.024 195.764C240.067 195.764 240.109 195.751 240.144 195.725C240.179 195.7 240.205 195.665 240.219 195.624L240.301 195.334C240.312 195.284 240.304 195.232 240.277 195.188C240.251 195.144 240.209 195.112 240.16 195.097C240.111 195.083 240.059 195.088 240.013 195.111C239.967 195.134 239.932 195.174 239.915 195.222L239.831 195.513C239.822 195.543 239.821 195.575 239.827 195.605C239.832 195.636 239.845 195.665 239.864 195.69C239.883 195.715 239.907 195.735 239.934 195.749C239.962 195.763 239.993 195.771 240.024 195.771V195.764ZM240.304 194.795C240.347 194.796 240.389 194.782 240.424 194.757C240.458 194.732 240.484 194.696 240.497 194.655L240.584 194.365C240.598 194.315 240.591 194.26 240.566 194.214C240.54 194.168 240.497 194.134 240.447 194.119C240.396 194.104 240.342 194.109 240.295 194.134C240.249 194.159 240.214 194.2 240.198 194.251L240.111 194.54C240.103 194.566 240.101 194.593 240.104 194.619C240.107 194.646 240.115 194.672 240.128 194.695C240.141 194.718 240.159 194.739 240.18 194.755C240.201 194.772 240.225 194.784 240.251 194.791C240.267 194.792 240.284 194.791 240.3 194.788L240.304 194.795ZM240.595 193.829C240.638 193.829 240.679 193.816 240.714 193.79C240.748 193.765 240.774 193.73 240.787 193.689L240.877 193.401C240.892 193.349 240.887 193.294 240.862 193.247C240.837 193.199 240.794 193.164 240.743 193.148C240.692 193.132 240.636 193.137 240.589 193.163C240.541 193.188 240.506 193.23 240.49 193.282L240.402 193.572C240.394 193.597 240.392 193.624 240.395 193.651C240.398 193.678 240.406 193.704 240.419 193.727C240.432 193.75 240.45 193.771 240.471 193.788C240.492 193.804 240.516 193.816 240.542 193.824C240.558 193.825 240.575 193.824 240.591 193.822L240.595 193.829ZM240.893 192.866C240.936 192.866 240.978 192.853 241.012 192.827C241.047 192.802 241.072 192.767 241.085 192.726L241.178 192.438C241.186 192.412 241.188 192.386 241.186 192.359C241.184 192.333 241.176 192.307 241.164 192.284C241.152 192.26 241.135 192.239 241.115 192.222C241.095 192.205 241.071 192.192 241.046 192.184C241.021 192.176 240.994 192.173 240.968 192.175C240.941 192.178 240.916 192.185 240.892 192.197C240.868 192.21 240.848 192.226 240.831 192.247C240.813 192.267 240.801 192.29 240.793 192.316L240.702 192.604C240.694 192.629 240.691 192.656 240.693 192.682C240.695 192.709 240.703 192.735 240.715 192.758C240.727 192.782 240.744 192.803 240.764 192.82C240.784 192.837 240.808 192.85 240.833 192.858C240.852 192.86 240.87 192.861 240.889 192.859L240.893 192.866ZM241.201 191.906C241.244 191.906 241.286 191.892 241.32 191.867C241.355 191.842 241.38 191.806 241.393 191.766L241.487 191.486C241.497 191.46 241.502 191.433 241.501 191.405C241.5 191.378 241.494 191.351 241.482 191.326C241.471 191.301 241.454 191.278 241.434 191.26C241.413 191.242 241.389 191.228 241.363 191.219C241.337 191.211 241.309 191.207 241.282 191.21C241.254 191.212 241.228 191.22 241.203 191.234C241.179 191.247 241.158 191.265 241.141 191.286C241.124 191.308 241.112 191.333 241.105 191.36L241.01 191.647C240.993 191.698 240.998 191.753 241.022 191.801C241.047 191.849 241.089 191.885 241.14 191.901C241.159 191.903 241.178 191.902 241.197 191.899L241.201 191.906ZM241.521 190.948C241.563 190.948 241.604 190.934 241.639 190.909C241.673 190.884 241.698 190.848 241.711 190.808L241.809 190.528C241.819 190.503 241.825 190.475 241.824 190.448C241.824 190.42 241.818 190.393 241.806 190.368C241.795 190.343 241.778 190.32 241.758 190.302C241.738 190.283 241.714 190.269 241.688 190.26C241.662 190.252 241.634 190.248 241.607 190.25C241.579 190.252 241.553 190.26 241.528 190.273C241.504 190.286 241.483 190.304 241.465 190.325C241.448 190.346 241.435 190.371 241.428 190.398C241.397 190.487 241.364 190.583 241.33 190.678C241.321 190.703 241.318 190.729 241.319 190.756C241.321 190.782 241.328 190.808 241.34 190.832C241.351 190.855 241.368 190.877 241.388 190.894C241.408 190.911 241.431 190.924 241.456 190.933C241.476 190.939 241.496 190.942 241.516 190.941L241.521 190.948ZM241.854 189.995C241.896 189.994 241.937 189.98 241.971 189.955C242.005 189.93 242.03 189.895 242.043 189.855C242.11 189.668 242.146 189.575 242.146 189.575C242.158 189.549 242.165 189.522 242.165 189.494C242.166 189.466 242.161 189.438 242.151 189.413C242.14 189.387 242.124 189.363 242.104 189.344C242.084 189.324 242.06 189.309 242.034 189.3C242.008 189.29 241.98 189.286 241.952 189.287C241.924 189.289 241.897 189.296 241.872 189.309C241.848 189.322 241.826 189.339 241.808 189.361C241.79 189.383 241.777 189.408 241.77 189.435C241.77 189.435 241.732 189.533 241.663 189.723C241.645 189.773 241.648 189.829 241.671 189.878C241.694 189.926 241.735 189.964 241.785 189.982C241.806 189.987 241.828 189.989 241.85 189.988L241.854 189.995Z" fill="white"/>
<path d="M280.203 233.193H280.215C280.242 233.191 280.268 233.184 280.292 233.173C280.315 233.161 280.337 233.145 280.354 233.125C280.372 233.105 280.385 233.082 280.394 233.057C280.403 233.032 280.406 233.005 280.404 232.979L280.395 232.818C280.389 232.766 280.363 232.719 280.323 232.686C280.284 232.653 280.233 232.637 280.181 232.64C280.129 232.643 280.081 232.667 280.046 232.705C280.011 232.743 279.992 232.793 279.993 232.844L280.003 233.004C280.006 233.055 280.028 233.103 280.065 233.138C280.103 233.173 280.152 233.193 280.203 233.193ZM280.145 232.328H280.159C280.213 232.324 280.262 232.299 280.297 232.258C280.332 232.218 280.349 232.165 280.346 232.112L280.325 231.81C280.32 231.756 280.295 231.707 280.255 231.672C280.214 231.637 280.161 231.619 280.108 231.623C280.054 231.628 280.004 231.653 279.97 231.693C279.935 231.734 279.917 231.787 279.921 231.84L279.944 232.141C279.948 232.191 279.97 232.238 280.006 232.272C280.042 232.306 280.09 232.326 280.14 232.328H280.145ZM280.068 231.322H280.085C280.138 231.318 280.187 231.292 280.222 231.252C280.257 231.211 280.274 231.159 280.27 231.105L280.245 230.803C280.24 230.75 280.215 230.7 280.174 230.666C280.133 230.631 280.08 230.614 280.027 230.619C279.974 230.623 279.924 230.649 279.89 230.69C279.855 230.73 279.839 230.783 279.843 230.837L279.868 231.138C279.872 231.188 279.895 231.235 279.932 231.269C279.969 231.303 280.018 231.322 280.068 231.322ZM279.983 230.319H280C280.026 230.316 280.052 230.309 280.075 230.297C280.099 230.284 280.12 230.268 280.137 230.247C280.154 230.227 280.167 230.204 280.175 230.178C280.183 230.153 280.185 230.127 280.183 230.1L280.155 229.798C280.153 229.772 280.145 229.746 280.133 229.722C280.121 229.699 280.104 229.678 280.084 229.661C280.064 229.644 280.04 229.632 280.015 229.624C279.99 229.616 279.963 229.613 279.937 229.616C279.883 229.621 279.834 229.647 279.8 229.688C279.765 229.729 279.749 229.782 279.753 229.836L279.781 230.135C279.786 230.186 279.809 230.233 279.846 230.267C279.883 230.301 279.932 230.32 279.983 230.32V230.319ZM279.889 229.315H279.909C279.962 229.31 280.011 229.283 280.045 229.242C280.079 229.201 280.095 229.148 280.091 229.095L280.061 228.793C280.056 228.739 280.03 228.69 279.988 228.657C279.947 228.623 279.893 228.607 279.84 228.612C279.787 228.617 279.738 228.644 279.704 228.685C279.67 228.727 279.654 228.78 279.66 228.833L279.689 229.133C279.694 229.183 279.717 229.229 279.754 229.262C279.791 229.296 279.839 229.315 279.889 229.315ZM279.788 228.311H279.809C279.836 228.308 279.861 228.301 279.885 228.288C279.908 228.275 279.928 228.258 279.945 228.238C279.962 228.217 279.974 228.194 279.982 228.168C279.989 228.143 279.991 228.116 279.989 228.09L279.958 227.789C279.955 227.762 279.947 227.737 279.934 227.714C279.921 227.69 279.904 227.67 279.884 227.653C279.863 227.636 279.839 227.624 279.814 227.617C279.788 227.609 279.762 227.607 279.735 227.61C279.709 227.612 279.683 227.621 279.66 227.633C279.637 227.646 279.616 227.663 279.599 227.684C279.583 227.704 279.57 227.728 279.563 227.754C279.555 227.779 279.553 227.806 279.556 227.832L279.588 228.132C279.594 228.181 279.617 228.227 279.654 228.26C279.691 228.293 279.739 228.311 279.788 228.311ZM279.681 227.309H279.703C279.756 227.303 279.805 227.276 279.838 227.234C279.871 227.192 279.887 227.139 279.881 227.086L279.847 226.785C279.845 226.758 279.837 226.732 279.824 226.708C279.812 226.685 279.795 226.664 279.774 226.647C279.753 226.63 279.729 226.617 279.703 226.609C279.677 226.602 279.65 226.599 279.623 226.603C279.596 226.606 279.571 226.614 279.547 226.627C279.524 226.641 279.503 226.658 279.487 226.68C279.47 226.701 279.458 226.725 279.451 226.751C279.445 226.777 279.443 226.805 279.447 226.831L279.48 227.131C279.486 227.18 279.509 227.225 279.546 227.258C279.583 227.291 279.631 227.309 279.681 227.309ZM279.564 226.308H279.59C279.643 226.301 279.691 226.274 279.724 226.232C279.757 226.19 279.772 226.137 279.766 226.084L279.73 225.783C279.723 225.73 279.696 225.681 279.654 225.648C279.612 225.615 279.559 225.6 279.506 225.606C279.452 225.613 279.404 225.64 279.371 225.682C279.338 225.724 279.323 225.777 279.329 225.83L279.366 226.13C279.371 226.179 279.394 226.224 279.431 226.257C279.468 226.289 279.515 226.308 279.564 226.308ZM279.444 225.307H279.468C279.494 225.304 279.519 225.295 279.543 225.282C279.566 225.269 279.586 225.252 279.602 225.231C279.619 225.21 279.631 225.187 279.638 225.161C279.645 225.136 279.647 225.109 279.644 225.083L279.606 224.782C279.603 224.755 279.595 224.73 279.581 224.707C279.568 224.684 279.551 224.664 279.53 224.647C279.509 224.631 279.485 224.619 279.459 224.612C279.434 224.605 279.407 224.603 279.381 224.607C279.355 224.61 279.329 224.618 279.306 224.632C279.283 224.645 279.263 224.662 279.247 224.683C279.231 224.704 279.219 224.728 279.212 224.753C279.205 224.779 279.203 224.806 279.206 224.832L279.244 225.132C279.25 225.179 279.274 225.223 279.31 225.255C279.346 225.287 279.392 225.305 279.44 225.307H279.444ZM279.315 224.306H279.342C279.395 224.299 279.443 224.271 279.475 224.229C279.508 224.187 279.522 224.133 279.515 224.08L279.476 223.779C279.469 223.726 279.441 223.678 279.399 223.645C279.378 223.629 279.354 223.618 279.328 223.611C279.302 223.604 279.276 223.602 279.249 223.606C279.223 223.609 279.198 223.618 279.175 223.631C279.152 223.644 279.132 223.662 279.116 223.683C279.099 223.704 279.088 223.728 279.081 223.754C279.074 223.779 279.072 223.806 279.076 223.832L279.116 224.132C279.124 224.179 279.148 224.222 279.185 224.253C279.221 224.284 279.267 224.3 279.315 224.3V224.306ZM279.182 223.306H279.209C279.235 223.303 279.26 223.294 279.283 223.281C279.306 223.267 279.326 223.25 279.342 223.229C279.358 223.207 279.37 223.183 279.377 223.158C279.383 223.132 279.385 223.105 279.381 223.079L279.34 222.78C279.338 222.752 279.33 222.726 279.317 222.702C279.304 222.678 279.287 222.657 279.265 222.64C279.244 222.623 279.219 222.61 279.193 222.603C279.167 222.596 279.139 222.594 279.112 222.597C279.085 222.601 279.059 222.61 279.036 222.624C279.012 222.638 278.992 222.657 278.976 222.679C278.96 222.701 278.949 222.727 278.943 222.753C278.937 222.78 278.936 222.807 278.941 222.834L278.982 223.134C278.989 223.182 279.013 223.226 279.05 223.257C279.087 223.289 279.134 223.306 279.182 223.306ZM279.042 222.305H279.07C279.123 222.297 279.171 222.269 279.203 222.226C279.236 222.184 279.25 222.13 279.242 222.077L279.199 221.776C279.191 221.723 279.163 221.676 279.12 221.644C279.077 221.612 279.024 221.598 278.971 221.605C278.944 221.609 278.919 221.617 278.896 221.631C278.873 221.644 278.854 221.662 278.838 221.683C278.822 221.705 278.81 221.729 278.804 221.755C278.797 221.78 278.796 221.807 278.8 221.833L278.842 222.133C278.849 222.181 278.874 222.224 278.91 222.256C278.947 222.288 278.994 222.305 279.042 222.305ZM278.902 221.304H278.932C278.985 221.296 279.032 221.267 279.064 221.224C279.096 221.181 279.11 221.127 279.102 221.074L279.058 220.775C279.05 220.722 279.021 220.674 278.978 220.642C278.935 220.61 278.882 220.597 278.829 220.605C278.776 220.613 278.728 220.641 278.696 220.684C278.664 220.727 278.651 220.781 278.659 220.834L278.703 221.133C278.71 221.18 278.733 221.223 278.769 221.254C278.804 221.285 278.849 221.303 278.897 221.304H278.902ZM278.752 220.306C278.763 220.307 278.773 220.307 278.783 220.306C278.836 220.298 278.883 220.269 278.915 220.226C278.946 220.183 278.959 220.129 278.951 220.076L278.905 219.777C278.894 219.727 278.864 219.683 278.822 219.654C278.78 219.625 278.728 219.613 278.677 219.621C278.627 219.629 278.581 219.656 278.549 219.696C278.518 219.736 278.503 219.787 278.507 219.838L278.554 220.138C278.561 220.183 278.584 220.224 278.617 220.254C278.651 220.285 278.694 220.303 278.74 220.306H278.752ZM278.597 219.309H278.629C278.682 219.3 278.729 219.271 278.76 219.228C278.792 219.185 278.805 219.131 278.797 219.078L278.75 218.778C278.741 218.726 278.712 218.678 278.668 218.647C278.625 218.615 278.571 218.603 278.518 218.611C278.465 218.62 278.418 218.649 278.386 218.692C278.355 218.736 278.342 218.79 278.351 218.843L278.398 219.141C278.406 219.187 278.429 219.229 278.465 219.26C278.5 219.29 278.545 219.308 278.591 219.309H278.597ZM278.437 218.315H278.47C278.522 218.306 278.569 218.277 278.601 218.234C278.632 218.191 278.645 218.137 278.636 218.084L278.589 217.786C278.58 217.733 278.551 217.686 278.507 217.654C278.464 217.623 278.41 217.61 278.357 217.619C278.304 217.627 278.257 217.656 278.225 217.7C278.194 217.743 278.181 217.797 278.19 217.85L278.239 218.148C278.247 218.194 278.271 218.236 278.306 218.266C278.341 218.296 278.385 218.314 278.432 218.315H278.437ZM278.274 217.322H278.307C278.333 217.318 278.358 217.309 278.381 217.295C278.403 217.281 278.423 217.262 278.438 217.241C278.454 217.219 278.465 217.195 278.471 217.169C278.476 217.143 278.477 217.116 278.472 217.09L278.423 216.793C278.419 216.767 278.409 216.742 278.395 216.72C278.381 216.697 278.363 216.678 278.341 216.662C278.32 216.647 278.295 216.636 278.27 216.63C278.244 216.624 278.217 216.624 278.191 216.628C278.165 216.632 278.14 216.642 278.117 216.656C278.095 216.67 278.075 216.688 278.06 216.71C278.044 216.731 278.033 216.756 278.028 216.782C278.022 216.808 278.021 216.834 278.026 216.86L278.075 217.157C278.083 217.203 278.107 217.244 278.142 217.274C278.177 217.304 278.222 217.321 278.268 217.322H278.274ZM278.106 216.333H278.141C278.167 216.328 278.192 216.318 278.214 216.304C278.236 216.29 278.256 216.271 278.271 216.25C278.286 216.228 278.297 216.203 278.303 216.178C278.308 216.152 278.309 216.125 278.304 216.099L278.254 215.801C278.245 215.748 278.215 215.701 278.171 215.67C278.128 215.639 278.074 215.627 278.021 215.636C277.968 215.645 277.921 215.675 277.89 215.719C277.859 215.762 277.847 215.817 277.856 215.869L277.907 216.167C277.915 216.213 277.939 216.254 277.974 216.284C278.009 216.314 278.054 216.331 278.1 216.333H278.106ZM277.933 215.339H277.968C278.021 215.329 278.068 215.299 278.098 215.255C278.129 215.212 278.141 215.158 278.132 215.105L278.079 214.807C278.076 214.779 278.067 214.753 278.053 214.73C278.039 214.706 278.021 214.685 277.998 214.669C277.976 214.653 277.951 214.641 277.925 214.635C277.898 214.629 277.87 214.628 277.843 214.633C277.816 214.638 277.79 214.648 277.768 214.663C277.745 214.678 277.725 214.698 277.71 214.721C277.695 214.744 277.685 214.77 277.68 214.797C277.676 214.824 277.676 214.851 277.683 214.878L277.735 215.175C277.743 215.22 277.767 215.262 277.802 215.292C277.837 215.322 277.881 215.339 277.928 215.34L277.933 215.339ZM277.756 214.346H277.792C277.844 214.336 277.891 214.307 277.921 214.263C277.952 214.219 277.964 214.165 277.954 214.112L277.901 213.814C277.891 213.762 277.861 213.715 277.817 213.685C277.773 213.655 277.719 213.643 277.666 213.652C277.613 213.661 277.567 213.691 277.536 213.735C277.506 213.779 277.494 213.833 277.504 213.885L277.558 214.184C277.567 214.229 277.591 214.269 277.625 214.299C277.66 214.328 277.704 214.345 277.75 214.346H277.756ZM277.575 213.355C277.587 213.356 277.599 213.356 277.611 213.355C277.638 213.35 277.662 213.34 277.685 213.326C277.707 213.311 277.726 213.293 277.741 213.271C277.757 213.249 277.767 213.225 277.773 213.199C277.778 213.173 277.779 213.146 277.774 213.12L277.718 212.823C277.706 212.772 277.676 212.728 277.632 212.699C277.589 212.671 277.536 212.66 277.485 212.669C277.434 212.679 277.388 212.708 277.358 212.75C277.327 212.792 277.314 212.844 277.322 212.896L277.378 213.194C277.386 213.238 277.41 213.279 277.445 213.308C277.48 213.337 277.524 213.354 277.569 213.355H277.575ZM277.39 212.364H277.428C277.48 212.353 277.527 212.323 277.557 212.279C277.587 212.235 277.598 212.181 277.589 212.128L277.533 211.83C277.523 211.778 277.492 211.731 277.448 211.701C277.404 211.671 277.35 211.66 277.297 211.67C277.245 211.68 277.198 211.71 277.168 211.755C277.138 211.799 277.127 211.853 277.137 211.906L277.193 212.203C277.202 212.247 277.226 212.287 277.261 212.317C277.295 212.346 277.339 212.362 277.385 212.364H277.39ZM277.201 211.372H277.24C277.266 211.368 277.291 211.358 277.313 211.343C277.335 211.329 277.354 211.31 277.369 211.288C277.384 211.266 277.394 211.242 277.4 211.216C277.405 211.19 277.405 211.163 277.4 211.137L277.343 210.84C277.338 210.814 277.328 210.79 277.313 210.767C277.298 210.745 277.28 210.726 277.258 210.711C277.236 210.697 277.211 210.686 277.185 210.681C277.159 210.675 277.133 210.675 277.107 210.68C277.081 210.685 277.056 210.695 277.034 210.71C277.012 210.724 276.993 210.743 276.978 210.765C276.963 210.787 276.952 210.811 276.947 210.837C276.942 210.863 276.941 210.89 276.946 210.916L277.004 211.213C277.013 211.258 277.038 211.298 277.074 211.327C277.109 211.356 277.154 211.372 277.2 211.372H277.201ZM277.009 210.383C277.022 210.384 277.036 210.384 277.049 210.383C277.075 210.378 277.099 210.367 277.121 210.353C277.144 210.338 277.163 210.319 277.177 210.297C277.192 210.275 277.203 210.251 277.208 210.225C277.213 210.199 277.213 210.172 277.208 210.146L277.149 209.849C277.139 209.797 277.108 209.75 277.064 209.721C277.019 209.691 276.965 209.68 276.912 209.69C276.86 209.701 276.813 209.732 276.783 209.776C276.754 209.821 276.743 209.875 276.753 209.928L276.812 210.224C276.822 210.268 276.846 210.308 276.881 210.337C276.915 210.365 276.959 210.381 277.004 210.383H277.009ZM276.813 209.393H276.854C276.906 209.382 276.952 209.351 276.982 209.306C277.012 209.262 277.022 209.207 277.012 209.155L276.952 208.858C276.948 208.831 276.938 208.805 276.924 208.782C276.909 208.759 276.89 208.739 276.868 208.724C276.846 208.708 276.82 208.697 276.794 208.692C276.767 208.686 276.74 208.686 276.713 208.691C276.686 208.697 276.661 208.707 276.638 208.723C276.616 208.738 276.597 208.758 276.582 208.781C276.568 208.804 276.558 208.83 276.554 208.857C276.549 208.884 276.551 208.911 276.557 208.938L276.616 209.235C276.626 209.279 276.65 209.318 276.685 209.347C276.719 209.375 276.763 209.392 276.808 209.393H276.813ZM276.615 208.404H276.655C276.681 208.399 276.706 208.389 276.728 208.375C276.75 208.36 276.769 208.341 276.783 208.319C276.798 208.297 276.808 208.272 276.813 208.246C276.818 208.22 276.817 208.194 276.812 208.168L276.752 207.871C276.739 207.821 276.708 207.777 276.664 207.749C276.62 207.722 276.567 207.712 276.516 207.722C276.465 207.733 276.42 207.762 276.391 207.805C276.361 207.847 276.349 207.9 276.357 207.951L276.417 208.248C276.427 208.291 276.451 208.331 276.486 208.359C276.521 208.387 276.564 208.403 276.609 208.404H276.615ZM276.412 207.424H276.454C276.506 207.413 276.551 207.382 276.58 207.337C276.609 207.293 276.62 207.239 276.609 207.186L276.547 206.89C276.542 206.864 276.532 206.839 276.517 206.817C276.502 206.796 276.483 206.777 276.461 206.762C276.439 206.748 276.414 206.738 276.388 206.733C276.363 206.728 276.336 206.728 276.31 206.734C276.284 206.739 276.26 206.749 276.238 206.764C276.216 206.779 276.197 206.798 276.183 206.82C276.168 206.842 276.158 206.867 276.153 206.892C276.148 206.918 276.149 206.945 276.154 206.971L276.214 207.268C276.225 207.31 276.25 207.348 276.285 207.375C276.32 207.402 276.362 207.417 276.406 207.417L276.412 207.424ZM276.206 206.437H276.248C276.274 206.432 276.298 206.421 276.32 206.406C276.342 206.391 276.361 206.372 276.375 206.35C276.39 206.328 276.399 206.303 276.404 206.277C276.409 206.251 276.409 206.224 276.403 206.198L276.342 205.901C276.33 205.849 276.299 205.803 276.254 205.774C276.209 205.745 276.154 205.735 276.102 205.746C276.076 205.751 276.052 205.762 276.03 205.777C276.008 205.792 275.989 205.811 275.975 205.833C275.96 205.856 275.95 205.88 275.946 205.906C275.941 205.933 275.941 205.959 275.947 205.985L276.008 206.281C276.02 206.323 276.045 206.36 276.079 206.387C276.114 206.414 276.156 206.43 276.2 206.43L276.206 206.437ZM275.997 205.457H276.039C276.091 205.446 276.137 205.414 276.166 205.37C276.195 205.325 276.205 205.27 276.195 205.218L276.13 204.921C276.116 204.872 276.084 204.829 276.04 204.802C275.996 204.776 275.943 204.767 275.893 204.778C275.843 204.789 275.799 204.819 275.769 204.861C275.74 204.904 275.729 204.956 275.737 205.007L275.8 205.302C275.813 205.343 275.838 205.379 275.873 205.404C275.907 205.43 275.949 205.443 275.992 205.443L275.997 205.457ZM275.784 204.477C275.799 204.479 275.813 204.479 275.828 204.477C275.854 204.472 275.878 204.461 275.9 204.446C275.922 204.431 275.941 204.411 275.955 204.389C275.969 204.367 275.979 204.342 275.984 204.316C275.988 204.289 275.988 204.263 275.982 204.237L275.917 203.941C275.904 203.892 275.871 203.849 275.827 203.822C275.783 203.796 275.731 203.787 275.68 203.798C275.63 203.809 275.586 203.839 275.557 203.881C275.528 203.924 275.516 203.976 275.524 204.027L275.588 204.322C275.602 204.362 275.628 204.396 275.662 204.421C275.696 204.445 275.737 204.458 275.779 204.458L275.784 204.477ZM275.569 203.497C275.583 203.499 275.598 203.499 275.612 203.497C275.638 203.492 275.663 203.481 275.685 203.466C275.706 203.451 275.725 203.431 275.739 203.409C275.754 203.387 275.763 203.362 275.768 203.336C275.773 203.309 275.772 203.283 275.766 203.257L275.7 202.961C275.687 202.911 275.655 202.868 275.61 202.841C275.566 202.813 275.513 202.805 275.462 202.816C275.411 202.827 275.367 202.857 275.338 202.901C275.309 202.944 275.298 202.997 275.307 203.048L275.373 203.343C275.388 203.382 275.414 203.415 275.448 203.438C275.482 203.461 275.522 203.473 275.563 203.472L275.569 203.497ZM275.35 202.517C275.365 202.519 275.38 202.519 275.395 202.517C275.447 202.506 275.492 202.474 275.521 202.429C275.549 202.384 275.559 202.33 275.548 202.278L275.482 201.983C275.476 201.956 275.466 201.932 275.451 201.91C275.436 201.888 275.416 201.869 275.394 201.855C275.371 201.84 275.346 201.83 275.32 201.826C275.294 201.821 275.267 201.822 275.241 201.827C275.215 201.833 275.19 201.844 275.168 201.86C275.146 201.875 275.128 201.895 275.114 201.917C275.1 201.94 275.09 201.965 275.086 201.992C275.081 202.018 275.082 202.045 275.089 202.071L275.154 202.365C275.17 202.402 275.197 202.434 275.231 202.456C275.265 202.478 275.304 202.489 275.345 202.488L275.35 202.517ZM275.129 201.537H275.174C275.2 201.531 275.224 201.52 275.246 201.505C275.267 201.49 275.286 201.47 275.3 201.448C275.314 201.425 275.323 201.4 275.328 201.374C275.332 201.348 275.331 201.321 275.325 201.295L275.259 201C275.253 200.974 275.243 200.95 275.227 200.928C275.212 200.906 275.193 200.888 275.17 200.874C275.148 200.86 275.123 200.85 275.097 200.846C275.07 200.841 275.044 200.842 275.018 200.848C274.992 200.854 274.968 200.865 274.946 200.88C274.924 200.895 274.906 200.915 274.892 200.937C274.878 200.96 274.868 200.985 274.864 201.011C274.859 201.037 274.86 201.064 274.866 201.089L274.933 201.385C274.949 201.421 274.976 201.452 275.01 201.474C275.044 201.495 275.084 201.505 275.124 201.504L275.129 201.537ZM274.905 200.557C274.92 200.559 274.935 200.559 274.95 200.557C275.002 200.545 275.047 200.513 275.075 200.468C275.104 200.423 275.113 200.369 275.101 200.317L275.033 200.021C275.028 199.994 275.018 199.968 275.003 199.945C274.988 199.922 274.969 199.902 274.946 199.887C274.923 199.872 274.897 199.861 274.87 199.856C274.843 199.851 274.815 199.852 274.788 199.858C274.761 199.864 274.736 199.876 274.714 199.892C274.692 199.909 274.673 199.929 274.659 199.953C274.646 199.977 274.637 200.003 274.634 200.031C274.63 200.058 274.633 200.086 274.641 200.112L274.708 200.406C274.725 200.442 274.752 200.472 274.786 200.492C274.821 200.513 274.86 200.523 274.9 200.521L274.905 200.557ZM274.677 199.577C274.692 199.579 274.708 199.579 274.723 199.577C274.775 199.565 274.82 199.533 274.848 199.487C274.876 199.442 274.885 199.387 274.873 199.335L274.804 199.041C274.8 199.014 274.79 198.988 274.775 198.965C274.76 198.942 274.74 198.922 274.717 198.907C274.695 198.892 274.669 198.881 274.642 198.876C274.615 198.871 274.587 198.872 274.56 198.878C274.533 198.884 274.508 198.896 274.486 198.912C274.464 198.929 274.445 198.949 274.431 198.973C274.417 198.997 274.409 199.023 274.405 199.051C274.402 199.078 274.405 199.106 274.412 199.132L274.481 199.428C274.499 199.463 274.526 199.492 274.56 199.511C274.594 199.531 274.632 199.54 274.671 199.538L274.677 199.577ZM274.446 198.597C274.462 198.599 274.478 198.599 274.494 198.597C274.546 198.585 274.591 198.552 274.619 198.506C274.647 198.461 274.656 198.406 274.643 198.354L274.573 198.06C274.568 198.033 274.557 198.009 274.542 197.986C274.526 197.964 274.507 197.946 274.484 197.931C274.461 197.917 274.436 197.907 274.409 197.903C274.383 197.898 274.355 197.899 274.329 197.906C274.303 197.912 274.278 197.923 274.257 197.939C274.235 197.955 274.217 197.975 274.203 197.998C274.189 198.022 274.18 198.047 274.176 198.074C274.173 198.1 274.174 198.128 274.181 198.154L274.25 198.448C274.268 198.482 274.295 198.511 274.329 198.53C274.363 198.55 274.402 198.559 274.44 198.557L274.446 198.597ZM274.214 197.617C274.229 197.619 274.244 197.619 274.26 197.617C274.312 197.604 274.356 197.572 274.384 197.526C274.412 197.481 274.421 197.426 274.41 197.374L274.338 197.08C274.325 197.029 274.292 196.986 274.247 196.959C274.201 196.932 274.148 196.923 274.096 196.936C274.045 196.948 274.001 196.98 273.973 197.024C273.945 197.069 273.935 197.122 273.946 197.174L274.018 197.468C274.035 197.502 274.063 197.531 274.097 197.55C274.131 197.569 274.169 197.578 274.208 197.575L274.214 197.617ZM273.977 196.637C273.993 196.639 274.009 196.639 274.025 196.637C274.076 196.624 274.121 196.592 274.149 196.546C274.177 196.5 274.185 196.446 274.173 196.394L274.1 196.1C274.096 196.072 274.086 196.046 274.07 196.023C274.055 196 274.036 195.98 274.012 195.964C273.989 195.949 273.963 195.939 273.936 195.934C273.909 195.929 273.88 195.93 273.854 195.937C273.827 195.943 273.801 195.955 273.779 195.972C273.757 195.989 273.739 196.01 273.725 196.034C273.712 196.059 273.703 196.085 273.701 196.113C273.698 196.141 273.701 196.169 273.71 196.195L273.781 196.489C273.799 196.523 273.827 196.551 273.861 196.569C273.895 196.588 273.933 196.597 273.971 196.594L273.977 196.637ZM273.736 195.657C273.752 195.659 273.769 195.659 273.785 195.657C273.836 195.643 273.878 195.61 273.905 195.564C273.931 195.519 273.938 195.465 273.925 195.414L273.854 195.12C273.841 195.068 273.808 195.023 273.762 194.995C273.74 194.982 273.714 194.973 273.688 194.969C273.662 194.965 273.635 194.966 273.609 194.972C273.584 194.978 273.559 194.99 273.538 195.006C273.517 195.021 273.499 195.041 273.485 195.064C273.471 195.086 273.462 195.112 273.458 195.138C273.454 195.164 273.455 195.191 273.462 195.216L273.535 195.51C273.554 195.545 273.582 195.573 273.617 195.592C273.652 195.61 273.691 195.618 273.731 195.614L273.736 195.657ZM273.494 194.677C273.51 194.679 273.527 194.679 273.543 194.677C273.593 194.663 273.636 194.63 273.662 194.584C273.689 194.539 273.696 194.485 273.683 194.434L273.609 194.14C273.594 194.089 273.561 194.047 273.515 194.02C273.47 193.994 273.416 193.987 273.365 194C273.315 194.015 273.272 194.048 273.246 194.094C273.22 194.14 273.212 194.194 273.225 194.245L273.299 194.539C273.319 194.571 273.347 194.597 273.38 194.614C273.414 194.631 273.451 194.638 273.488 194.635L273.494 194.677ZM273.248 193.697C273.264 193.699 273.281 193.699 273.298 193.697C273.349 193.683 273.392 193.65 273.418 193.604C273.445 193.558 273.452 193.503 273.438 193.452L273.364 193.16C273.358 193.134 273.347 193.109 273.331 193.087C273.315 193.065 273.295 193.046 273.272 193.032C273.25 193.018 273.224 193.009 273.197 193.005C273.171 193.001 273.144 193.002 273.117 193.009C273.091 193.015 273.067 193.027 273.045 193.044C273.024 193.06 273.006 193.08 272.992 193.104C272.979 193.127 272.97 193.153 272.967 193.179C272.964 193.206 272.966 193.233 272.973 193.259L273.047 193.552C273.066 193.586 273.094 193.615 273.129 193.633C273.164 193.652 273.203 193.66 273.242 193.657L273.248 193.697ZM273 192.717C273.016 192.717 273.033 192.715 273.049 192.71C273.1 192.696 273.143 192.663 273.169 192.617C273.196 192.571 273.203 192.516 273.189 192.465L273.113 192.173C273.099 192.122 273.065 192.079 273.02 192.053C272.974 192.027 272.92 192.02 272.87 192.032C272.819 192.045 272.775 192.078 272.747 192.122C272.72 192.167 272.711 192.221 272.723 192.272L272.798 192.566C272.816 192.603 272.845 192.634 272.881 192.654C272.917 192.674 272.959 192.682 273 192.678V192.717ZM272.746 191.737C272.763 191.737 272.78 191.735 272.797 191.73C272.848 191.716 272.891 191.682 272.917 191.636C272.944 191.59 272.951 191.535 272.937 191.484L272.861 191.191C272.848 191.14 272.814 191.095 272.768 191.068C272.722 191.041 272.667 191.034 272.615 191.047C272.563 191.061 272.519 191.094 272.492 191.141C272.465 191.187 272.457 191.242 272.471 191.294L272.548 191.586C272.565 191.622 272.592 191.653 272.627 191.673C272.661 191.694 272.701 191.703 272.741 191.701L272.746 191.737ZM272.489 190.757C272.506 190.757 272.524 190.755 272.541 190.75C272.591 190.736 272.635 190.702 272.661 190.656C272.687 190.61 272.694 190.555 272.681 190.504L272.602 190.21C272.596 190.184 272.584 190.159 272.568 190.138C272.552 190.116 272.532 190.098 272.509 190.085C272.486 190.071 272.46 190.062 272.433 190.059C272.407 190.055 272.38 190.057 272.354 190.064C272.328 190.071 272.304 190.083 272.283 190.099C272.262 190.116 272.244 190.136 272.231 190.16C272.218 190.183 272.209 190.209 272.206 190.236C272.203 190.262 272.205 190.289 272.213 190.315L272.29 190.606C272.307 190.643 272.334 190.673 272.369 190.694C272.403 190.715 272.443 190.726 272.483 190.724L272.489 190.757ZM272.227 189.777C272.245 189.78 272.263 189.78 272.28 189.777C272.331 189.763 272.375 189.728 272.401 189.682C272.427 189.636 272.434 189.581 272.42 189.53L272.339 189.234C272.332 189.209 272.32 189.185 272.304 189.164C272.287 189.143 272.267 189.125 272.244 189.112C272.221 189.099 272.195 189.091 272.169 189.088C272.143 189.084 272.116 189.086 272.09 189.094C272.065 189.101 272.041 189.113 272.02 189.129C271.999 189.145 271.982 189.166 271.969 189.189C271.956 189.212 271.947 189.237 271.944 189.263C271.941 189.29 271.943 189.316 271.95 189.342L272.031 189.636C272.049 189.671 272.076 189.7 272.11 189.719C272.144 189.738 272.182 189.748 272.221 189.745L272.227 189.777Z" fill="white"/>
<path d="M182.763 191.723C186.251 194.428 190.514 195.945 194.928 196.052C199.341 196.16 203.672 194.851 207.288 192.318L208.138 191.723C208.558 192.23 216.693 200.693 221.289 211.132C221.414 211.416 221.466 211.727 221.444 212.037C221.421 212.347 221.323 212.646 221.158 212.91C220.356 214.205 218.678 216.562 216.604 217.518C216.231 217.688 215.814 217.734 215.414 217.649C215.013 217.564 214.651 217.353 214.379 217.047C212.839 215.322 209.459 211.447 207.877 209.067C207.877 209.067 210.638 224.303 211.377 230.538C211.484 231.439 211.237 232.346 210.689 233.068C210.141 233.79 209.333 234.271 208.437 234.409C199.37 235.847 190.624 236.056 182.333 234.51C181.459 234.349 180.679 233.86 180.151 233.144C179.624 232.429 179.389 231.539 179.494 230.656C180.216 224.443 183.012 209.067 183.012 209.067C181.43 211.447 178.046 215.315 176.512 217.047C176.24 217.353 175.878 217.564 175.477 217.649C175.077 217.734 174.66 217.688 174.287 217.518C172.211 216.562 170.534 214.205 169.732 212.91C169.567 212.646 169.469 212.347 169.447 212.037C169.424 211.727 169.477 211.416 169.601 211.132C174.209 200.693 182.341 192.23 182.763 191.723Z" fill="white"/>
<path d="M178.728 196.45C180.92 193.688 182.579 191.945 182.763 191.723C186.251 194.428 190.514 195.945 194.928 196.052C199.341 196.16 203.672 194.851 207.288 192.318L208.138 191.723C208.306 191.925 209.69 193.382 211.587 195.72C207.694 198.578 196.486 204.603 178.728 196.45Z" fill="#19D791"/>
<path d="M179.817 228.275C180.171 225.767 180.678 222.623 181.185 219.607C192.96 221.471 202.484 221.125 209.774 219.977C210.28 222.995 210.778 226.11 211.121 228.553C203.42 229.949 193.001 230.489 179.817 228.275Z" fill="#19D791"/>
<path d="M182.42 212.414C182.777 210.392 183.016 209.074 183.016 209.074C182.448 209.926 181.647 210.972 180.776 212.043C177.324 211.223 173.916 210.23 170.563 209.068C171.766 206.66 173.117 204.33 174.61 202.09C196.893 210.875 211.151 205.771 216.727 202.802C218.28 205.184 219.665 207.671 220.874 210.245C218.751 211.204 215.485 212.41 211.099 213.264C209.874 211.794 208.647 210.25 207.863 209.074C207.863 209.074 208.205 210.961 208.681 213.678C202.066 214.665 193.289 214.78 182.42 212.414Z" fill="#19D791"/>
<path d="M144.802 205.666L157.314 226.893C157.797 227.707 158.011 228.653 157.926 229.596C157.841 230.539 157.461 231.432 156.841 232.147C154.645 234.667 150.699 238.009 145.361 237.812C136.853 237.497 134.646 232.847 125.112 236.472C115.578 240.096 110.832 231.454 107.472 231.35C107.098 231.339 106.772 231.331 106.477 231.327C106.286 231.323 106.099 231.268 105.937 231.166C105.774 231.065 105.642 230.922 105.554 230.753C105.466 230.583 105.426 230.392 105.437 230.201C105.449 230.01 105.511 229.826 105.619 229.668L121.402 206.38L144.802 205.666Z" fill="#19D791"/>
<path d="M144.802 205.12L145.171 204.213L150.475 191.175C150.475 191.175 145.197 189.363 142.754 189.363C142.754 189.363 132.748 192.671 124.239 189.363C124.239 189.363 118.639 190.071 116.518 191.49L121.639 205.435L144.802 205.12Z" fill="#19D791"/>
<path d="M145.608 207.034L145.354 204.011C145.354 204.011 131.823 206.059 121.177 204.169L120.931 207.249C120.931 207.249 130.579 211.396 145.608 207.034Z" fill="#00C079"/>
<path d="M49.0304 145.605C48.9182 145.323 48.8641 145.021 48.8714 144.718C48.8786 144.414 48.947 144.116 49.0724 143.839C52.8524 135.52 66.3918 105.738 66.8888 105.384C67.4684 104.964 85.6628 89.1622 85.6628 89.1622C89.0143 86.2516 90.0784 89.0698 90.0784 89.0698L97.0195 117.95L79.0814 156.222C78.8374 156.744 78.4027 157.151 77.8668 157.362C77.331 157.572 76.735 157.568 76.2016 157.352L50.2751 146.852C49.9944 146.738 49.7395 146.569 49.5257 146.355C49.3119 146.141 49.1434 145.886 49.0304 145.605ZM87.8635 99.5964C88.3787 99.2291 88.7734 98.7173 88.9977 98.1257C89.222 97.5341 89.2658 96.8892 89.1236 96.2727C88.9814 95.6562 88.6596 95.0957 88.1989 94.6621C87.7381 94.2285 87.1591 93.9412 86.5351 93.8366C85.9111 93.7321 85.2701 93.8149 84.6932 94.0747C84.1162 94.3344 83.6293 94.7594 83.2939 95.2959C82.9585 95.8324 82.7897 96.4563 82.8089 97.0887C82.8281 97.7211 83.0344 98.3337 83.4018 98.8488C83.6455 99.191 83.9543 99.4818 84.3105 99.7046C84.6667 99.9274 85.0634 100.078 85.4777 100.147C85.8921 100.217 86.3161 100.204 86.7255 100.109C87.1348 100.015 87.5216 99.8405 87.8635 99.5964Z" fill="#5FE0BB"/>
<path d="M78.3141 125.277C75.8571 129.541 76.4549 132.746 78.4947 133.922C80.5821 135.123 83.5347 133.922 85.7972 130.042C88.0036 126.213 87.8272 122.754 85.5339 121.434C83.1721 120.073 80.4113 121.634 78.3141 125.277ZM73.5541 142.394L76.9561 116.494L75.3517 115.57L71.9483 141.47L73.5541 142.394ZM83.7195 128.68C82.3979 131.029 80.7921 132.384 79.6693 131.738C78.5465 131.091 78.9273 129.155 80.3441 126.698C81.6349 124.458 83.1329 122.918 84.3481 123.618C85.4892 124.269 85.023 126.404 83.7195 128.68ZM63.2052 127.771C60.7678 132.005 61.3236 135.228 63.3886 136.416C65.4536 137.605 68.4287 136.416 70.6855 132.496C72.8723 128.698 72.7141 125.208 70.4447 123.9C68.0773 122.533 65.2982 124.124 63.1996 127.767L63.2052 127.771ZM68.5994 131.166C67.296 133.483 65.672 134.871 64.5492 134.224C63.4026 133.563 63.8072 131.641 65.224 129.184C66.533 126.912 68.0128 125.404 69.2281 126.104C70.3761 126.758 69.9099 128.894 68.5994 131.166Z" fill="white"/>
<path d="M87.199 97.5846C87.4602 97.555 87.7069 97.4489 87.9079 97.2795C88.1089 97.1101 88.2554 96.885 88.3288 96.6326C88.4226 96.312 90.7578 88.7296 99.8885 86.1466C100.224 86.0467 100.507 85.8186 100.676 85.5117C100.845 85.2047 100.886 84.8436 100.791 84.5065C100.696 84.1694 100.471 83.8833 100.167 83.7103C99.8622 83.5372 99.5017 83.4911 99.1633 83.5818C88.5654 86.5792 85.8774 95.5112 85.7682 95.8906C85.7081 96.1013 85.7007 96.3235 85.7468 96.5377C85.7928 96.7519 85.8909 96.9515 86.0322 97.1189C86.1736 97.2862 86.354 97.4163 86.5574 97.4975C86.7609 97.5787 86.9812 97.6086 87.199 97.5846Z" fill="#F1F1F1"/>
<path d="M126.548 151.314L141.226 155.2L143.455 155.788C143.455 155.788 143.735 155.399 144.272 154.668C144.528 154.299 144.881 153.862 145.289 153.345C145.696 152.829 146.187 152.243 146.743 151.59C148.113 150.009 149.57 148.506 151.106 147.086C153.16 145.189 155.343 143.436 157.639 141.84C160.46 139.888 163.421 138.15 166.5 136.638C168.18 135.841 169.926 135.032 171.782 134.325L172.482 134.045C172.717 133.958 172.957 133.874 173.192 133.787L174.62 133.268C175.6 132.957 176.567 132.607 177.577 132.323C181.763 131.073 186.046 130.176 190.383 129.643C192.623 129.363 194.907 129.199 197.209 129.097L198.941 129.061C199.221 129.061 199.526 129.043 199.803 129.043L200.643 129.05H201.483C201.763 129.05 202.031 129.05 202.355 129.066L204.22 129.141L204.455 129.149L204.58 129.093L204.619 129.034H204.647L205.045 129.118L205.914 129.208C206.494 129.247 207.076 129.293 207.652 129.358L209.388 129.531C209.966 129.605 210.54 129.682 211.115 129.754C213.414 130.065 215.695 130.454 217.926 130.955L218.766 131.138L219.595 131.344C220.145 131.484 220.7 131.614 221.246 131.764C222.333 132.072 223.423 132.362 224.482 132.711C225.552 133.028 226.582 133.411 227.631 133.765C228.146 133.954 228.653 134.151 229.161 134.344L229.924 134.634L230.668 134.945C232.671 135.749 234.565 136.659 236.401 137.587C237.306 138.067 238.208 138.533 239.061 139.037C239.913 139.541 240.766 140.044 241.596 140.546C244.644 142.456 247.536 144.602 250.247 146.965C252.489 148.921 254.587 151.037 256.523 153.296C257.983 155.01 259.347 156.805 260.607 158.671C261.116 159.445 261.587 160.138 261.937 160.747C262.287 161.356 262.624 161.867 262.858 162.316C262.984 162.546 263.095 162.747 263.191 162.918C263.391 163.282 263.869 163.478 264.332 163.401C264.396 163.392 264.459 163.378 264.521 163.358L264.599 163.331C265.115 163.162 265.378 162.689 265.196 162.256C265.123 162.077 265.035 161.87 264.935 161.632C264.756 161.18 264.482 160.611 264.168 159.952C263.855 159.292 263.468 158.528 263.037 157.685C261.953 155.649 260.752 153.678 259.44 151.78C257.677 149.25 255.727 146.855 253.607 144.616C251.005 141.87 248.182 139.342 245.167 137.056C244.34 136.443 243.511 135.813 242.625 135.218C241.76 134.602 240.843 134.018 239.917 133.425C238.048 132.263 236.094 131.11 234.005 130.058C233.746 129.925 233.489 129.789 233.227 129.656L232.43 129.271C231.897 129.016 231.363 128.753 230.822 128.502C229.724 128.021 228.626 127.515 227.483 127.07C226.363 126.595 225.189 126.177 224.02 125.743C223.432 125.534 222.836 125.34 222.238 125.137L221.341 124.838L220.432 124.558C218.007 123.798 215.501 123.168 212.956 122.617L211.038 122.222L209.103 121.879C208.457 121.758 207.804 121.667 207.153 121.574L206.173 121.434L205.686 121.361L205.134 121.299L203.285 121.081C202.992 121.04 202.641 121.012 202.305 120.983L201.282 120.895L200.258 120.809C199.915 120.78 199.593 120.77 199.259 120.749L197.271 120.637C194.611 120.545 191.963 120.536 189.326 120.652C184.162 120.878 179.026 121.534 173.972 122.612C172.738 122.857 171.54 123.172 170.332 123.452L168.564 123.933L167.687 124.175L166.822 124.438C164.511 125.11 162.314 125.908 160.183 126.709C156.24 128.251 152.413 130.076 148.733 132.169C145.682 133.91 142.751 135.851 139.957 137.979C137.844 139.593 135.819 141.318 133.89 143.148C133.099 143.906 132.392 144.584 131.815 145.2C131.238 145.816 130.722 146.32 130.341 146.764C129.567 147.623 126.548 151.314 126.548 151.314Z" fill="#19D791"/>
<path d="M120.297 150.708L127.913 178.43L156.024 151.709L120.297 150.708Z" fill="#19D791"/>
<path d="M245.753 265.345L233.497 261.4L231.635 260.804L230.868 261.716C230.626 262.022 230.298 262.377 229.918 262.8C229.537 263.223 229.078 263.7 228.567 264.232C227.298 265.52 225.96 266.738 224.56 267.882C222.687 269.408 220.714 270.807 218.653 272.068C216.129 273.608 213.496 274.961 210.775 276.117C209.29 276.723 207.754 277.336 206.127 277.858L205.52 278.06C205.314 278.123 205.1 278.185 204.9 278.249C204.485 278.373 204.068 278.5 203.649 278.63C202.8 278.852 201.948 279.107 201.071 279.306C197.432 280.19 193.726 280.768 189.991 281.035C188.065 281.175 186.109 281.217 184.142 281.206L182.663 281.162C182.418 281.153 182.164 281.151 181.928 281.14L181.213 281.098L180.499 281.059C180.261 281.043 180.033 281.035 179.757 281.006L178.172 280.866L177.973 280.847L177.861 280.898L177.822 280.952H177.8L177.468 280.856L176.734 280.74C176.243 280.681 175.754 280.615 175.263 280.534L173.796 280.311C173.309 280.222 172.824 280.132 172.338 280.045C170.399 279.683 168.481 279.256 166.612 278.728L165.912 278.535L165.219 278.325C164.76 278.185 164.295 278.045 163.84 277.905C162.933 277.597 162.02 277.303 161.143 276.96C160.252 276.642 159.392 276.275 158.527 275.925C158.107 275.742 157.687 275.551 157.267 275.365L156.636 275.085L156.023 274.788C154.366 274.017 152.811 273.16 151.306 272.291C150.565 271.843 149.826 271.406 149.128 270.94C148.429 270.473 147.739 270.009 147.064 269.54C144.59 267.783 142.262 265.829 140.103 263.697C136.954 260.603 134.235 257.099 132.02 253.28C131.635 252.598 131.283 251.988 131.019 251.46C130.754 250.932 130.505 250.48 130.333 250.084C130.24 249.884 130.159 249.709 130.088 249.557C129.939 249.238 129.546 249.051 129.147 249.095C129.092 249.101 129.037 249.111 128.983 249.125L128.914 249.144C128.465 249.266 128.214 249.658 128.338 250.035C128.389 250.189 128.451 250.371 128.52 250.577C128.644 250.971 128.842 251.467 129.067 252.047C129.292 252.626 129.57 253.288 129.886 254.026C130.681 255.808 131.579 257.542 132.577 259.219C133.918 261.449 135.427 263.573 137.092 265.573C139.134 268.025 141.377 270.302 143.799 272.379C144.466 272.939 145.132 273.51 145.849 274.059C146.566 274.608 147.291 275.159 148.041 275.704C149.559 276.775 151.152 277.84 152.864 278.827C153.076 278.952 153.284 279.079 153.501 279.204C153.718 279.328 153.937 279.446 154.155 279.565C154.595 279.806 155.032 280.054 155.477 280.29C156.381 280.748 157.284 281.227 158.23 281.655C159.16 282.107 160.127 282.515 161.096 282.935C161.583 283.138 162.076 283.33 162.576 283.528L163.321 283.821L164.077 284.101C166.094 284.853 168.189 285.501 170.322 286.078L171.931 286.498L173.558 286.873C174.102 287.005 174.651 287.11 175.2 287.217L176.026 287.383L176.436 287.465L176.902 287.542L178.463 287.808C178.71 287.856 179.008 287.894 179.295 287.934L180.162 288.053L181.027 288.171C181.317 288.21 181.587 288.232 181.867 288.265L183.555 288.447C185.809 288.638 188.07 288.76 190.323 288.777C194.745 288.806 199.161 288.469 203.528 287.769C204.594 287.614 205.636 287.394 206.676 287.209L208.216 286.876L208.979 286.708L209.731 286.52C211.743 286.047 213.665 285.463 215.531 284.872C218.992 283.729 222.367 282.342 225.632 280.721C228.341 279.369 230.96 277.843 233.472 276.152C235.379 274.86 237.217 273.47 238.98 271.988C239.702 271.375 240.349 270.829 240.878 270.329C241.407 269.829 241.882 269.416 242.233 269.061C242.947 268.359 245.753 265.345 245.753 265.345Z" fill="#19D791"/>
<path d="M251.041 266.132L246.315 242.186L220.668 263.734L251.041 266.132Z" fill="url(#paint0_linear_18_5770)"/>
<path d="M251.041 266.132L246.315 242.186L220.668 263.734L251.041 266.132Z" fill="#19D791"/>
<path d="M56.5992 215.873C55.3392 217.224 53.4716 218.393 52.1598 219.118C54.1198 221.537 56.7658 223.961 60.2728 226.332L61.2766 228.584L64.4966 224.731C64.4966 224.731 58.7216 221.859 56.5992 215.873Z" fill="#FFD89D"/>
<path d="M73.8053 288.96C73.8073 288.89 73.8002 288.82 73.7843 288.752C72.7427 284.623 67.574 282.051 67.574 282.051L65.5201 282.218C64.3427 285.858 64.4939 288.088 64.6801 289.078C64.6801 289.106 64.6942 289.132 64.7012 289.16C66.3993 289.309 69.8769 289.408 73.8053 288.96Z" fill="#7B818D"/>
<path d="M64.7026 279.161L65.5692 283.338C65.5944 283.481 65.6645 283.612 65.7695 283.713C65.8745 283.814 66.0088 283.878 66.153 283.898C66.6002 283.943 67.0513 283.936 67.4969 283.877C67.6079 283.855 67.7136 283.812 67.808 283.75C67.9023 283.687 67.9834 283.607 68.0466 283.513C68.1098 283.419 68.1538 283.314 68.1763 283.203C68.1987 283.092 68.1991 282.978 68.1773 282.867L67.5739 279.16L64.7026 279.161Z" fill="#FFD89D"/>
<path d="M91.9478 288.778C91.9342 288.746 91.9178 288.714 91.8988 288.684C90.8025 287.153 88.0081 284.101 82.4879 282.776L79.839 282.694C79.839 282.694 78.6602 284.743 78.6378 288.539C79.2426 288.787 80.413 289.053 82.6755 289.117C86.1713 289.218 90.3195 288.913 91.9478 288.778Z" fill="#7B818D"/>
<path d="M79.3489 278.68C79.3783 278.877 79.7409 281.877 79.8809 283.041C79.8922 283.17 79.9463 283.291 80.0346 283.385C80.123 283.48 80.2404 283.542 80.3681 283.562C80.9728 283.643 81.5863 283.634 82.1882 283.534C82.3622 283.49 82.5161 283.388 82.6241 283.245C82.7321 283.102 82.7878 282.926 82.7818 282.747V278.037L79.3489 278.68Z" fill="#FFD89D"/>
<path d="M77.2245 223.927C77.2245 223.927 83.6127 248.202 83.4965 278.748C83.4956 279.019 83.402 279.281 83.2313 279.491C83.0607 279.701 82.8232 279.846 82.5585 279.902C81.7549 280.07 80.5747 280.272 79.5975 280.244C79.3443 280.235 79.1018 280.139 78.9112 279.973C78.7206 279.806 78.5936 279.578 78.5517 279.328C77.6557 274.075 72.5163 244.488 69.5917 239.684C69.5917 239.684 67.6653 266.037 68.2813 279.709C68.2892 279.873 68.2346 280.033 68.1285 280.158C68.0225 280.283 67.873 280.363 67.7101 280.382C66.9192 280.47 66.1211 280.47 65.3302 280.382C65.1378 280.363 64.9573 280.281 64.8173 280.148C64.6773 280.015 64.5858 279.838 64.5574 279.647C63.919 275.202 60.2482 248.742 60.4036 229.683C60.412 228.608 63.2456 223.934 63.2456 223.934L77.2245 223.927Z" fill="#A8B2BC"/>
<path d="M86.1001 194.55C85.0728 193.261 84.1678 191.879 83.3967 190.422C82.3355 188.418 83.3113 191.72 83.0215 189.456C75.0751 183.716 63.1121 186.624 58.4837 187.208C56.9672 187.401 55.576 188.149 54.5791 189.308C50.6129 193.897 41.9105 206.462 52.1529 219.128C53.4647 218.4 55.3267 217.234 56.5923 215.883C55.4583 212.689 55.3659 208.603 57.7403 203.601C57.8213 203.998 57.9227 204.391 58.0441 204.778C61.3173 215.146 61.4923 223.776 61.4839 225.765C61.4837 225.898 61.5238 226.028 61.5988 226.137C61.6738 226.247 61.7801 226.331 61.9039 226.379C66.2117 228.105 74.5039 227.079 77.2871 226.659C77.5315 226.621 77.7511 226.488 77.8978 226.289C78.0445 226.09 78.1063 225.841 78.0697 225.596C76.7047 215.698 83.7159 199.416 85.5681 195.338C85.6976 195.046 85.8777 194.779 86.1001 194.55Z" fill="#2187FF"/>
<path d="M65.94 178.874L65.1097 187.355C65.1097 187.355 69.8824 188.793 73.353 186.344L70.9128 178.635L65.94 178.874Z" fill="#FFD89D"/>
<path d="M71.4725 169.205C71.5873 169.313 76.3193 178.606 76.3193 178.606L70.9559 181.195L65.1628 173.054C65.1628 173.054 69.5504 167.395 71.4725 169.205Z" fill="#FFD89D"/>
<path d="M67.5356 173.279C67.4887 173.401 67.4701 173.533 67.4812 173.663C67.4924 173.793 67.533 173.919 67.6 174.031L70.2796 178.49C70.3173 178.557 70.3644 178.619 70.4196 178.672C70.7374 178.969 71.8196 179.832 72.6694 178.657C73.3876 177.657 74.061 176.747 74.782 176.372C74.8828 176.321 74.9927 176.29 75.1054 176.281C75.2181 176.273 75.3314 176.287 75.4388 176.322C75.5461 176.357 75.6454 176.414 75.7309 176.488C75.8165 176.562 75.8865 176.652 75.937 176.753C76.378 177.627 77.2306 179.413 77.7668 181.093C77.8308 181.297 77.8153 181.519 77.7235 181.712C77.6316 181.906 77.4701 182.058 77.2712 182.137C76.1862 182.577 74.04 183.372 72.1346 183.635C71.9812 183.657 71.8248 183.636 71.6823 183.575C71.5397 183.515 71.4164 183.416 71.3254 183.291C70.5064 182.171 68.1964 179.032 67.4054 178.251C66.6732 177.521 65.3209 177.796 64.7119 177.971C64.598 178.004 64.4785 178.013 64.3609 177.998C64.2433 177.982 64.1302 177.943 64.0287 177.881C63.4113 177.509 62.3333 176.582 63.3189 175.013C63.4346 174.822 63.4717 174.595 63.4223 174.377C63.373 174.16 63.2409 173.971 63.0543 173.849C62.3641 173.396 61.6165 172.544 62.3291 171.164C63.0417 169.784 64.3409 169.642 65.2187 169.75C65.4092 169.776 65.603 169.74 65.7712 169.646C65.9393 169.553 66.0726 169.408 66.1511 169.232C66.1879 169.141 66.248 169.06 66.3253 168.999C66.4026 168.938 66.4946 168.898 66.5921 168.883C66.7012 168.865 66.8055 168.824 66.8988 168.764C66.992 168.705 67.0724 168.627 67.135 168.535C67.1977 168.444 67.2413 168.341 67.2635 168.233C67.2857 168.124 67.2859 168.012 67.264 167.903C67.11 167.112 67.2262 166.083 68.4876 165.393C70.8018 164.121 72.8276 166.194 73.3442 167.944C73.8608 169.694 71.2722 170.93 69.6454 171.137C68.4596 171.293 67.8002 172.598 67.5356 173.279Z" fill="#5B6475"/>
<path d="M68.4165 179.886C68.4165 179.886 67.3875 176.876 66.0701 176.987C64.7527 177.097 63.7153 178.409 65.3477 179.885C67.3791 181.719 68.4165 179.886 68.4165 179.886Z" fill="#FFD89D"/>
<path d="M57.3134 202.815C55.5773 198.064 56.2073 192.327 56.2129 192.269L56.6918 192.324C56.6848 192.38 56.0687 198.008 57.7656 202.65L57.3134 202.815Z" fill="#015FCD"/>
<path d="M69.3533 239.066C69.2998 239.065 69.2479 239.048 69.2056 239.015C69.1634 238.982 69.1331 238.937 69.1195 238.885C68.5903 236.842 64.6241 234.597 64.5835 234.574C64.5278 234.543 64.4868 234.491 64.4696 234.429C64.4524 234.368 64.4604 234.302 64.4918 234.246C64.5232 234.19 64.5754 234.149 64.6369 234.132C64.6985 234.115 64.7644 234.123 64.8201 234.154C64.9909 234.25 69.0047 236.523 69.5801 238.765C69.5881 238.795 69.59 238.827 69.5856 238.858C69.5813 238.889 69.5708 238.919 69.5548 238.947C69.5388 238.974 69.5176 238.998 69.4924 239.017C69.4671 239.036 69.4384 239.049 69.4079 239.057C69.3901 239.062 69.3717 239.065 69.3533 239.066Z" fill="#7B818D"/>
<path d="M102.235 197.217C93.2483 198.565 87.3949 192.895 83.0283 189.457C77.266 184.915 72.7818 187.124 72.7818 187.124L78.9263 198.852C88.1033 207.504 97.5127 205.583 103.445 202.772C103.515 200.848 103.099 198.937 102.235 197.217Z" fill="#2187FF"/>
<path d="M114.866 191.856L111.885 193.459C108.311 195.636 105.113 196.785 102.235 197.217C103.1 198.939 103.516 200.853 103.445 202.779C107.225 200.994 109.588 198.859 109.588 198.859C116.34 194.827 114.866 191.856 114.866 191.856Z" fill="url(#paint1_linear_18_5770)"/>
<path d="M123.644 196.056C123.548 195.741 123.383 195.452 123.161 195.21C122.939 194.968 122.665 194.778 122.36 194.656L116.312 192.224C116.312 192.224 116.22 191.449 117.589 190.921C118.958 190.393 118.639 188.861 118.639 188.861C118.639 188.861 116.769 189.714 114.03 191.068C112.463 191.842 111.584 193.208 111.119 194.236L112.676 196.284C116.403 197.404 120.175 197.618 123.979 197.173L123.644 196.056Z" fill="url(#paint2_linear_18_5770)"/>
<path d="M64.7244 289.154C64.762 289.313 64.8426 289.457 64.9572 289.573C65.0718 289.689 65.216 289.77 65.374 289.809C67.7778 290.315 71.5984 289.909 73.2015 289.699C73.3761 289.669 73.5342 289.577 73.6476 289.441C73.761 289.305 73.8222 289.133 73.8203 288.955C69.8918 289.403 66.4142 289.304 64.7244 289.154Z" fill="#7B818D"/>
<path d="M82.6906 289.112C80.4282 289.048 79.2578 288.782 78.653 288.534C78.653 288.759 78.653 288.989 78.653 289.226C78.651 289.341 78.6936 289.452 78.7718 289.537C78.8501 289.621 78.958 289.672 79.073 289.679L91.4924 289.599C91.8886 289.599 92.121 289.137 91.9488 288.773C90.3346 288.908 86.1864 289.213 82.6906 289.112Z" fill="#7B818D"/>
<path d="M120.908 226.561C120.908 226.561 116.091 239.539 108.765 237.947C108.765 237.947 108.01 242.362 109.244 242.883C109.244 242.883 120.232 243.201 121.324 228.11L120.908 226.561Z" fill="#FFD89D"/>
<path d="M120.701 229.603C120.722 229.828 119.885 229.983 119.619 229.025C119.692 228.605 119.822 226.785 120.141 226.505C121.842 224.995 124.873 223.299 124.873 223.299C124.971 223.427 125.015 223.589 124.995 223.749C124.976 223.909 124.894 224.056 124.768 224.157L123.255 225.179C123.413 225.701 123.643 226.159 123.675 226.761C123.69 227.216 123.53 227.659 123.227 227.998C122.926 228.343 122.527 228.787 122.156 229.118C121.966 229.304 121.736 229.444 121.484 229.528C121.232 229.612 120.965 229.637 120.701 229.603Z" fill="#FFD89D"/>
<path fill-rule="evenodd" clip-rule="evenodd" d="M108.836 221.138C108.836 221.138 106.509 219.038 109.5 216.759C112.31 214.62 114.363 217.491 113.432 219.339C113.417 219.37 113.409 219.404 113.408 219.438C113.408 219.472 113.415 219.506 113.43 219.537C113.445 219.568 113.466 219.595 113.493 219.617C113.52 219.638 113.552 219.653 113.585 219.66C113.83 219.715 114.043 219.958 113.655 220.822C113.639 220.859 113.633 220.899 113.638 220.939C113.642 220.979 113.657 221.017 113.682 221.049C114.026 221.511 115.174 223.362 111.709 223.644C111.678 223.647 111.647 223.642 111.618 223.632C111.588 223.622 111.561 223.606 111.538 223.586L108.836 221.138Z" fill="#5B6475"/>
<path fill-rule="evenodd" clip-rule="evenodd" d="M96.6174 224.221C96.6174 224.221 96.3948 221.54 94.9599 220.667C93.5249 219.793 90.7403 219.05 89.5727 221.964C89.0127 223.355 89.2003 224.017 89.5461 224.328C89.6933 224.466 89.7877 224.651 89.8133 224.851C89.8388 225.052 89.7939 225.254 89.6861 225.425C89.4509 225.845 89.4187 226.369 90.1313 226.842C90.2327 226.907 90.32 226.992 90.3881 227.092C90.4561 227.191 90.5035 227.303 90.5275 227.422C90.7137 228.393 91.7077 230.726 97.0234 228.176L96.6174 224.221Z" fill="#5B6475"/>
<path fill-rule="evenodd" clip-rule="evenodd" d="M102.763 219.401C101.718 218.953 99.5013 218.497 97.7779 221.511C97.6581 221.721 97.4828 221.895 97.2711 222.012C96.2449 222.572 93.2727 224.636 95.9789 228.35C96.1032 228.52 96.1839 228.717 96.2141 228.925C96.3051 229.554 96.6047 230.948 97.5049 231.293C97.7735 231.395 98.0002 231.584 98.1489 231.83C98.7537 232.826 100.479 234.921 103.381 232.733C103.529 232.622 103.699 232.543 103.881 232.502L107.889 231.62C108.102 231.573 108.323 231.581 108.533 231.643C109.023 231.783 110.013 231.911 110.381 230.759C110.456 230.525 110.595 230.316 110.783 230.156C111.455 229.585 112.883 228.035 111.802 225.863C111.681 225.621 111.637 225.346 111.679 225.078C111.806 224.265 111.872 222.459 110.183 221.68C109.929 221.565 109.72 221.368 109.59 221.12C109.03 220.037 107.192 217.26 103.959 219.3C103.783 219.413 103.582 219.481 103.374 219.498C103.165 219.516 102.956 219.482 102.763 219.401Z" fill="#5B6475"/>
<path fill-rule="evenodd" clip-rule="evenodd" d="M108.208 283.097L107.624 283.772L108.024 285.235C108.076 285.423 108.179 285.592 108.323 285.724C108.467 285.856 108.644 285.944 108.836 285.979C110.138 286.217 113.092 286.648 114.613 285.995C114.613 285.995 115.084 282.828 109.853 283.772L108.208 283.097Z" fill="#A8B2BC"/>
<path fill-rule="evenodd" clip-rule="evenodd" d="M99.0744 284.78L98.765 285.541L98.891 288.287C98.9071 288.482 98.9904 288.666 99.1266 288.807C99.2629 288.948 99.4438 289.038 99.6386 289.061C100.362 289.18 101.096 289.219 101.828 289.177C102.441 289.131 102.825 288.554 102.586 288.04L101.662 286.059C101.593 285.913 101.496 285.781 101.376 285.673C101.255 285.565 101.115 285.482 100.962 285.429L99.0744 284.78Z" fill="#A8B2BC"/>
<path fill-rule="evenodd" clip-rule="evenodd" d="M101.732 231.267L101.137 237.174C101.137 237.174 104.348 238.262 106.458 237.034L105.886 231.104L101.732 231.267Z" fill="#FFD89D"/>
<path fill-rule="evenodd" clip-rule="evenodd" d="M96.5835 263.601C96.5835 263.601 98.1081 280.59 99.1147 285.788C99.1147 285.788 99.8665 286.336 100.994 285.628L102.361 262.961L96.5835 263.601Z" fill="#FFD89D"/>
<path fill-rule="evenodd" clip-rule="evenodd" d="M103.355 264.621L107.53 283.646C107.53 283.646 108.666 284.823 110.143 283.646L109.423 263.647L103.355 264.621Z" fill="#FFD89D"/>
<path fill-rule="evenodd" clip-rule="evenodd" d="M98.0672 237.621L97.0228 237.737C95.0012 239.905 91.2912 254.804 89.9528 257.972L84.5081 257.083C84.4599 257.074 84.4099 257.077 84.3635 257.094C84.3171 257.11 84.276 257.139 84.2446 257.177C84.2133 257.215 84.1929 257.26 84.1855 257.309C84.1782 257.358 84.1842 257.407 84.2029 257.453C84.4451 258.044 85.3523 259.749 88.886 259.749C90.5366 259.749 87.9591 261.03 88.9475 261.47C88.9475 261.47 91.1162 260.688 91.1204 259.314C91.1204 259.314 97.3406 245.147 98.6188 243.655C99.897 242.162 98.0672 237.621 98.0672 237.621Z" fill="#FFD89D"/>
<path fill-rule="evenodd" clip-rule="evenodd" d="M97.0302 237.735C97.0302 237.735 102.563 235.684 109.471 237.807C109.471 237.807 110.245 243.036 109.846 245.525L97.9458 245.956L97.0302 237.735Z" fill="#2187FF"/>
<path fill-rule="evenodd" clip-rule="evenodd" d="M109.688 247.159C109.688 247.159 113.492 259.37 114.056 267.507C114.07 267.707 114.004 267.904 113.873 268.056C113.742 268.207 113.556 268.301 113.356 268.316C112.565 268.372 111.168 268.568 109.272 269.199C106.192 270.223 103.65 269.885 101.351 269.224C99.5462 268.706 95.034 268.254 93.1762 268.082C93.0717 268.073 92.9702 268.041 92.8783 267.991C92.7864 267.94 92.7061 267.871 92.6425 267.787C92.5789 267.704 92.5334 267.608 92.5089 267.506C92.4843 267.404 92.4813 267.298 92.5 267.194C93.039 264.184 95.0914 253.499 98.205 246.238L109.688 247.159Z" fill="#2187FF"/>
<path fill-rule="evenodd" clip-rule="evenodd" d="M109.885 245.244L109.683 247.159C109.683 247.159 106.024 247.173 97.9372 246.901L97.8952 245.515C97.8952 245.515 106.852 245.69 109.885 245.244Z" fill="#015FCD"/>
<path fill-rule="evenodd" clip-rule="evenodd" d="M109.859 225.543C110.777 229.093 110.51 233.174 106.332 234.083C103.441 234.715 100.403 231.771 99.4846 228.22C98.5662 224.668 100.138 221.964 103.004 221.22C105.87 220.475 108.94 221.991 109.859 225.543Z" fill="#FFD89D"/>
<path fill-rule="evenodd" clip-rule="evenodd" d="M109.548 226.638C109.548 226.638 109.688 224.49 110.755 225.152C111.822 225.814 110.342 228.389 109.679 228.539C109.017 228.689 109.548 226.638 109.548 226.638Z" fill="#FFD89D"/>
<path fill-rule="evenodd" clip-rule="evenodd" d="M100.383 229.114C100.383 229.114 100.063 227.476 98.9021 228.234C97.7415 228.991 99.9562 231.666 101.32 231.072L100.383 229.114Z" fill="#FFD89D"/>
<path d="M121.542 228.866C121.746 228.369 122.333 227.019 122.596 226.744C122.785 226.545 122.876 226.363 122.862 226.184C122.854 226.104 122.829 226.026 122.788 225.957C122.747 225.887 122.691 225.827 122.625 225.781L122.551 225.719L121.101 226.495L120.522 227.401L120.766 227.556L121.304 226.716L122.51 226.071C122.548 226.108 122.57 226.158 122.573 226.211C122.557 226.344 122.491 226.466 122.387 226.552C122.039 226.915 121.353 228.577 121.267 228.764L121.542 228.866Z" fill="#FFD89D"/>
<path fill-rule="evenodd" clip-rule="evenodd" d="M98.6654 227.812C98.6654 227.812 101.988 231.409 103.714 223.945C103.714 223.945 105.436 226.174 106.221 224.203C106.221 224.203 109.651 225.378 110.029 223.936C110.407 222.494 105.394 218.582 101.362 221.389C97.3298 224.196 98.6654 227.812 98.6654 227.812Z" fill="#5B6475"/>
<defs>
<linearGradient id="paint0_linear_18_5770" x1="232.065" y1="300.556" x2="242.267" y2="204.202" gradientUnits="userSpaceOnUse">
<stop stop-color="#5C5E61"/>
<stop offset="1" stop-color="#5C5E61"/>
</linearGradient>
<linearGradient id="paint1_linear_18_5770" x1="-20363.2" y1="15681.7" x2="-18603.2" y2="14347.3" gradientUnits="userSpaceOnUse">
<stop stop-color="white"/>
<stop offset="1" stop-color="#EFEFF4"/>
</linearGradient>
<linearGradient id="paint2_linear_18_5770" x1="-20316.5" y1="12472.8" x2="-18889.4" y2="11077.3" gradientUnits="userSpaceOnUse">
<stop stop-color="white"/>
<stop offset="1" stop-color="#EFEFF4"/>
</linearGradient>
</defs>
</svg>
